<svg width="53" height="54" viewBox="0 0 53 54" fill="none" xmlns="http://www.w3.org/2000/svg">
<path d="M0.000188607 41.6915C0.000188607 48.1734 5.27415 53.4473 11.756 53.4473C18.2389 53.4473 23.5128 48.1734 23.5128 41.6915C23.5128 37.1124 20.8761 33.1467 17.046 31.2067L19.33 27.5298C19.5218 27.2208 19.427 26.8148 19.1176 26.6221C18.8085 26.4303 18.4025 26.5251 18.2098 26.8345L15.8237 30.6756C14.554 30.2052 13.1873 29.9353 11.7558 29.9353C5.27396 29.9348 0 35.2087 0 41.6916L0.000188607 41.6915ZM5.408 49.9577C5.471 47.2032 7.2602 44.8313 9.90713 44.0275C10.1614 43.9503 10.3449 43.7282 10.372 43.4638C10.3992 43.1998 10.2644 42.9451 10.0313 42.8181C8.77275 42.132 7.9905 40.8164 7.9905 39.3854C7.9905 37.2324 9.74205 35.4809 11.895 35.4809C14.0485 35.4809 15.8 37.2324 15.8 39.3854C15.8 40.8596 14.9806 42.1928 13.6622 42.8637C13.4245 42.9846 13.2838 43.2357 13.3036 43.501C13.3233 43.7664 13.5013 43.9935 13.7537 44.0772C16.3123 44.9247 18.0427 47.2768 18.1048 49.9572C16.3436 51.3133 14.146 52.129 11.7562 52.129C9.36679 52.129 7.1692 51.3132 5.408 49.9577ZM11.7562 31.2532C17.5116 31.2532 22.1946 35.9362 22.1946 41.6916C22.1946 44.4677 21.0979 46.9876 19.3242 48.8592C18.9357 46.4887 17.4586 44.4365 15.3305 43.3191C16.4552 42.3419 17.1188 40.921 17.1188 39.3856C17.1188 36.5051 14.7754 34.1627 11.8949 34.1627C9.01446 34.1627 6.67207 36.5056 6.67207 39.3856C6.67207 40.8644 7.29516 42.25 8.35511 43.2262C6.12762 44.3179 4.58349 46.4078 4.18713 48.8574C2.41438 46.9859 1.31865 44.4669 1.31865 41.6917C1.31865 35.9363 6.00072 31.2533 11.7562 31.2533V31.2532Z" fill="white"/>
<path d="M40.9829 29.9349C39.5515 29.9349 38.1847 30.2048 36.9151 30.6752L34.5289 26.8342C34.3367 26.5247 33.9302 26.43 33.6212 26.6217C33.3117 26.8144 33.217 27.2204 33.4088 27.5294L35.6928 31.2063C31.8628 33.1463 29.226 37.1121 29.226 41.6911C29.226 48.1735 34.4999 53.4474 40.9827 53.4474C47.4646 53.4474 52.7386 48.1735 52.7386 41.6916C52.7386 35.2088 47.4646 29.9348 40.9827 29.9348L40.9829 29.9349ZM34.6338 49.9578C34.6968 47.2038 36.4865 44.832 39.1339 44.0282C39.3882 43.9509 39.5717 43.7288 39.5988 43.4644C39.6259 43.2005 39.4912 42.9457 39.2581 42.8188C37.9991 42.1332 37.2168 40.818 37.2168 39.3861C37.2168 37.2331 38.9684 35.4816 41.1218 35.4816C43.2748 35.4816 45.0263 37.2331 45.0263 39.3861C45.0263 40.8603 44.2069 42.1935 42.8885 42.8643C42.6508 42.9853 42.5101 43.2364 42.5299 43.5017C42.5496 43.767 42.7276 43.9942 42.98 44.0779C45.5386 44.9254 47.269 47.2775 47.3311 49.9583C45.5699 51.314 43.3723 52.1297 40.9829 52.1297C38.5931 52.1297 36.3955 51.3139 34.6338 49.9578ZM48.5495 48.8597C48.1609 46.4887 46.6839 44.4361 44.5557 43.3196C45.681 42.3424 46.344 40.9215 46.344 39.3861C46.344 36.5056 44.0011 34.1633 41.1211 34.1633C38.2406 34.1633 35.8973 36.5061 35.8973 39.3861C35.8973 40.8649 36.5213 42.2505 37.5804 43.2267C35.3529 44.3184 33.8087 46.4083 33.4128 48.858C31.6401 46.9865 30.5439 44.4674 30.5439 41.6923C30.5439 35.9368 35.2269 31.2538 40.9823 31.2538C46.7378 31.2538 51.4198 35.9368 51.4198 41.6923C51.4198 44.4683 50.3231 46.9882 48.5495 48.8599V48.8597Z" fill="white"/>
<path d="M26.3691 7.41858C23.0715 7.41858 20.3888 10.1013 20.3888 13.3989C20.3888 16.6964 23.0715 19.3787 26.3691 19.3787C29.6666 19.3787 32.3494 16.6964 32.3494 13.3989C32.3494 10.1013 29.6666 7.41858 26.3691 7.41858ZM26.3691 18.0602C23.7985 18.0602 21.7076 15.9693 21.7076 13.3987C21.7076 10.8282 23.7985 8.7368 26.3691 8.7368C28.9396 8.7368 31.0305 10.8277 31.0305 13.3983C31.0305 15.9693 28.9396 18.0602 26.3691 18.0602Z" fill="white"/>
<path d="M38.47 11.4599C38.6562 11.4406 38.8245 11.3427 38.9349 11.1914C39.0448 11.0401 39.0848 10.8488 39.0457 10.6663C38.7173 9.13684 38.1182 7.69148 37.2642 6.37043C37.1626 6.21316 36.9998 6.10693 36.815 6.0775C36.631 6.04669 36.442 6.0982 36.2967 6.21546C35.5191 6.84268 34.3994 6.78336 33.6931 6.07659C32.9863 5.36889 32.9266 4.25005 33.5542 3.47298C33.6715 3.32812 33.7216 3.1396 33.6922 2.95474C33.6628 2.76989 33.5565 2.6071 33.3993 2.50547C32.0781 1.65201 30.6329 1.05234 29.1034 0.724022C28.9213 0.685855 28.7296 0.724482 28.5783 0.834845C28.427 0.944747 28.3291 1.11351 28.3098 1.29974C28.2045 2.293 27.3712 3.04258 26.3701 3.04258C25.369 3.04258 24.5358 2.29304 24.4309 1.29927C24.4116 1.11304 24.3136 0.944736 24.1624 0.834374C24.0111 0.724931 23.8198 0.686306 23.6372 0.723552C22.1078 1.05188 20.6624 1.65105 19.3414 2.505C19.1841 2.60663 19.0779 2.76941 19.0485 2.95427C19.019 3.13913 19.0692 3.32766 19.1864 3.47251C19.8141 4.24965 19.7543 5.36838 19.0476 6.07611C18.3408 6.78289 17.222 6.84221 16.4439 6.21499C16.2991 6.09773 16.1106 6.04623 15.9257 6.07703C15.7409 6.10646 15.5781 6.21268 15.4764 6.36996C14.623 7.69112 14.0233 9.13637 13.695 10.6658C13.6559 10.8488 13.6955 11.0396 13.8058 11.1909C13.9157 11.3422 14.0845 11.4402 14.2707 11.4595C15.2649 11.5643 16.014 12.3975 16.014 13.3987C16.014 14.3998 15.2645 15.233 14.2707 15.3379C14.0845 15.3572 13.9162 15.4551 13.8058 15.6064C13.6959 15.7577 13.6559 15.949 13.695 16.1315C14.0233 17.6609 14.6225 19.1063 15.4764 20.4274C15.5781 20.5846 15.7409 20.6909 15.9257 20.7203C16.1106 20.752 16.2991 20.7005 16.4439 20.5823C17.2215 19.9542 18.3403 20.014 19.0476 20.7212C19.7543 21.4289 19.8141 22.5477 19.1864 23.3248C19.0692 23.4697 19.019 23.6582 19.0485 23.843C19.0779 24.0279 19.1841 24.1907 19.3414 24.2923C20.6626 25.1458 22.1078 25.7454 23.6372 26.0738C23.8193 26.1119 24.0106 26.0738 24.1624 25.9629C24.3137 25.853 24.4116 25.6843 24.4309 25.498C24.5357 24.5048 25.369 23.7557 26.3701 23.7557C27.3712 23.7557 28.2044 24.5052 28.3093 25.499C28.3286 25.6852 28.4266 25.8535 28.5778 25.9639C28.691 26.0462 28.8266 26.0894 28.9646 26.0894C29.011 26.0894 29.0575 26.0844 29.103 26.0747C30.6324 25.7464 32.0778 25.1472 33.3988 24.2933C33.5561 24.1916 33.6623 24.0288 33.6917 23.844C33.7212 23.6591 33.671 23.4706 33.5538 23.3258C32.9261 22.5486 32.9859 21.4299 33.6927 20.7221C34.399 20.0144 35.5183 19.9547 36.2963 20.5833C36.4416 20.701 36.6306 20.7525 36.8145 20.7212C36.9994 20.6918 37.1621 20.5856 37.2638 20.4283C38.1172 19.1071 38.7169 17.6619 39.0452 16.1325C39.0843 15.9495 39.0448 15.7586 38.9344 15.6073C38.8245 15.456 38.6557 15.3581 38.4695 15.3388C37.4753 15.234 36.7262 14.4007 36.7262 13.3996C36.7266 12.3981 37.4758 11.5648 38.47 11.4599ZM37.6022 16.4874C37.3466 17.4195 36.9759 18.313 36.4949 19.1563C35.2658 18.5604 33.7657 18.7857 32.761 19.79C31.7567 20.7948 31.5319 22.2961 32.1273 23.5239C31.284 24.0049 30.3905 24.3756 29.4584 24.6312C29.0128 23.3404 27.7924 22.4368 26.3701 22.4368C24.9478 22.4368 23.7274 23.34 23.2819 24.6308C22.3498 24.3751 21.4563 24.0045 20.6129 23.5235C21.2084 22.2957 20.9835 20.7943 19.9793 19.7895C18.9745 18.7848 17.4736 18.5604 16.2453 19.1559C15.7643 18.3125 15.3937 17.419 15.138 16.4869C16.4288 16.0413 17.332 14.8209 17.332 13.3987C17.332 11.9764 16.4288 10.756 15.138 10.3104C15.3937 9.37829 15.7643 8.4848 16.2453 7.64146C17.4731 8.23649 18.9745 8.01163 19.9793 7.0078C20.9835 6.00303 21.2084 4.50166 20.6129 3.27384C21.4563 2.79285 22.3498 2.42221 23.2819 2.16655C23.7275 3.45735 24.9478 4.36049 26.3701 4.36049C27.7924 4.36049 29.0128 3.45736 29.4584 2.16655C30.3905 2.42222 31.284 2.79285 32.1273 3.27384C31.5318 4.50166 31.7567 6.00306 32.761 7.0078C33.7657 8.01256 35.2681 8.23691 36.4949 7.64146C36.9759 8.48481 37.3466 9.37829 37.6022 10.3104C36.3114 10.756 35.4083 11.9764 35.4083 13.3987C35.4083 14.8209 36.3114 16.0418 37.6022 16.4874Z" fill="white"/>
</svg>
