<svg width="51" height="53" viewBox="0 0 51 53" fill="none" xmlns="http://www.w3.org/2000/svg">
<path d="M34.1515 19.2529C34.1976 18.7634 34.2309 18.2675 34.2309 17.7582C34.2309 8.7432 26.8957 1.40845 17.8811 1.40845C8.86665 1.40891 1.52551 8.75052 1.52551 17.7653C1.52551 26.6875 8.71488 33.9626 17.5977 34.1091C17.5382 34.6779 17.5049 35.2597 17.5049 35.8484C17.5049 44.9958 24.9458 52.4367 34.0932 52.4367C43.2406 52.4367 50.6815 44.9959 50.6815 35.8484C50.6949 26.7149 43.2804 19.2873 34.1523 19.2542L34.1515 19.2529ZM2.84692 17.765C2.84692 9.4776 9.58641 2.73811 17.8738 2.73811C26.1617 2.73811 32.9078 9.4776 32.9078 17.765C32.9078 18.2942 32.8746 18.81 32.8151 19.3128C31.9025 19.3857 31.0093 19.5246 30.1429 19.7363C30.2485 19.0817 30.3081 18.42 30.3081 17.7654C30.3081 10.9132 24.7325 5.33801 17.8807 5.33801C11.0289 5.33801 5.45336 10.9135 5.45336 17.7654C5.45382 24.6171 11.0224 30.1927 17.8819 30.1927C18.1001 30.1927 18.3054 30.1793 18.5167 30.1729C18.2058 31.013 17.9742 31.8924 17.8025 32.792C9.5483 32.7459 2.84767 26.0262 2.84767 17.7651L2.84692 17.765ZM19.0844 28.797C18.6941 28.8432 18.2973 28.8699 17.8743 28.8699C11.7498 28.8699 6.76941 23.8895 6.76941 17.765C6.76941 11.6405 11.7498 6.66015 17.8743 6.66015C23.9988 6.66015 28.9792 11.6405 28.9792 17.765C28.9792 18.5655 28.8865 19.3655 28.7148 20.1526C24.4685 21.6142 20.9894 24.7625 19.0844 28.797ZM34.0984 51.1136C25.6785 51.1136 18.8329 44.2614 18.8329 35.8481C18.8324 27.4348 25.6846 20.5767 34.0984 20.5767C42.5112 20.5767 49.3638 27.4289 49.3638 35.8422C49.3638 44.2555 42.5186 51.1136 34.0984 51.1136Z" fill="white"/>
<path d="M34.0984 23.2355C27.1471 23.2355 21.4927 28.8904 21.4927 35.8412C21.4922 42.7924 27.1476 48.4539 34.0984 48.4539C41.0491 48.4539 46.7041 42.799 46.7041 35.8482C46.7041 28.8965 41.0556 23.2355 34.0984 23.2355ZM34.0984 47.1323C27.8747 47.1323 22.8149 42.0725 22.8149 35.8488C22.8149 29.6251 27.8747 24.5654 34.0984 24.5654C40.3221 24.5654 45.3818 29.6251 45.3818 35.8488C45.3883 42.0657 40.3221 47.1323 34.0984 47.1323Z" fill="white"/>
<path d="M37.4584 35.3853C37.1013 35.0614 36.6976 34.81 36.2413 34.6379C35.7915 34.4658 35.183 34.2743 34.4157 34.0626V30.2199C35.1894 30.4713 35.6789 30.9807 35.8843 31.7544C36.0628 32.409 36.4531 32.7334 37.0548 32.7334C37.3722 32.7334 37.6499 32.6208 37.8751 32.3961C38.0997 32.1714 38.2123 31.9066 38.2123 31.5957C38.2123 31.3179 38.1394 31.0134 37.9876 30.6831C37.8354 30.3523 37.6241 30.0284 37.3459 29.711C36.9952 29.3008 36.5851 28.9899 36.1159 28.785C35.6462 28.5802 35.0774 28.4478 34.4227 28.3818V27.383C34.4227 26.8801 34.2243 26.6222 33.834 26.6222C33.4437 26.6222 33.2518 26.8801 33.2518 27.3959V28.3749C31.9751 28.4875 31.0031 28.8778 30.3281 29.5587C29.6536 30.2332 29.3164 31.1065 29.3164 32.1644C29.3164 32.9778 29.4884 33.6393 29.8322 34.1616C30.1759 34.6774 30.6257 35.0811 31.1817 35.3589C31.7371 35.6366 32.425 35.8945 33.2517 36.1197V40.4122C32.8416 40.2932 32.5108 40.128 32.2598 39.9028C32.0084 39.6782 31.8234 39.4332 31.7044 39.1688C31.5789 38.9045 31.4331 38.5142 31.2679 38.0113C31.195 37.7797 31.0631 37.5947 30.8711 37.4687C30.6792 37.3363 30.4476 37.2768 30.1699 37.2768C29.8261 37.2768 29.535 37.3958 29.3034 37.6339C29.0718 37.8719 28.9597 38.1368 28.9597 38.4343C28.9597 38.8376 29.0455 39.2412 29.2176 39.6578C29.3897 40.0744 29.6541 40.4712 30.0181 40.8615C30.3752 41.2448 30.825 41.5692 31.3676 41.8271C31.9032 42.085 32.5381 42.2571 33.2592 42.3364V44.83C33.2592 45.1142 33.3053 45.3195 33.3916 45.4584C33.4843 45.5908 33.6361 45.6633 33.8613 45.6633C34.0993 45.6633 34.2581 45.5774 34.3309 45.4118C34.4038 45.2467 34.4366 44.9818 34.4366 44.6183V42.3166C35.3164 42.2437 36.0768 42.0125 36.7185 41.6222C37.3602 41.2319 37.8428 40.736 38.1735 40.121C38.5043 39.506 38.6695 38.8508 38.6695 38.15C38.6695 37.5876 38.5638 37.0718 38.3585 36.6022C38.1334 36.1325 37.8423 35.7288 37.4584 35.3851L37.4584 35.3853ZM33.2453 33.7253C32.6898 33.5204 32.2796 33.2953 32.0083 33.0438C31.737 32.7924 31.6051 32.4288 31.6051 31.9393C31.6051 31.43 31.7504 31.0466 32.0415 30.7952C32.3327 30.5437 32.7359 30.3389 33.2517 30.1866L33.2521 33.7253L33.2453 33.7253ZM35.8649 39.7635C35.5277 40.1405 35.0446 40.3919 34.4232 40.5109V36.463C35.0649 36.6679 35.5475 36.9128 35.8783 37.204C36.2091 37.4951 36.3742 37.9117 36.3742 38.4473C36.3673 38.9502 36.2022 39.3935 35.8649 39.7635Z" fill="white"/>
<path d="M22.7753 20.0147C22.5705 19.8029 22.2858 19.7037 21.9222 19.7037C21.7372 19.7037 21.5716 19.7633 21.4129 19.8887C21.2542 20.0142 21.0692 20.3321 20.8505 20.841C20.5132 21.6216 20.1562 22.124 19.7922 22.3358C19.4286 22.5475 19.0184 22.6532 18.575 22.6532C17.3912 22.6532 16.6969 21.5621 16.4851 19.3858H19.1504C19.2362 19.3858 19.3354 19.2733 19.4479 19.055C19.5605 18.8368 19.6131 18.6384 19.6131 18.4599C19.6131 18.3076 19.5536 18.2352 19.4281 18.2352H16.4251C16.4117 18.1162 16.4052 17.9178 16.4052 17.6465L16.4251 16.7538H19.1434C19.2293 16.7538 19.3284 16.6412 19.441 16.423C19.5536 16.2047 19.6062 16.0064 19.6062 15.8343C19.6062 15.6756 19.5467 15.5962 19.4212 15.5962L16.505 15.5967C16.6106 14.6048 16.8422 13.8703 17.1993 13.4006C17.5629 12.9309 18.0722 12.6993 18.7403 12.6993C19.3225 12.6993 19.7322 12.8119 19.9772 13.043C20.2217 13.2677 20.427 13.5985 20.6056 14.0285C20.7445 14.3593 20.8833 14.5974 21.0291 14.7561C21.1744 14.9148 21.3996 14.9941 21.7105 14.9941C21.9883 14.9941 22.2263 14.8885 22.4183 14.6832C22.6102 14.4783 22.7094 14.2269 22.7094 13.9293C22.7094 13.0564 22.2992 12.322 21.4724 11.7332C20.6456 11.1444 19.6667 10.8534 18.5224 10.8534C15.9296 10.8534 14.4417 12.434 14.045 15.5957H13.1324C13.053 15.5957 12.9538 15.7082 12.8413 15.9394C12.7287 16.171 12.6692 16.3629 12.6692 16.5216C12.6692 16.6739 12.7222 16.7463 12.8344 16.7463H13.9522C13.9259 17.2492 13.919 17.6326 13.919 17.9039V18.2347H13.1384C13.059 18.2347 12.9598 18.3472 12.8473 18.5784C12.7347 18.81 12.6752 19.0019 12.6752 19.1537C12.6752 19.3124 12.7282 19.3918 12.8403 19.3918H13.9979C14.17 21.1113 14.6858 22.3878 15.5522 23.2344C16.4186 24.081 17.4373 24.5045 18.6013 24.5045C19.8446 24.5045 20.903 24.1276 21.7759 23.3737C22.6489 22.6199 23.0857 21.7931 23.0857 20.9068C23.0857 20.5174 22.9801 20.2199 22.7752 20.0146L22.7753 20.0147Z" fill="white"/>
<path d="M23.6422 50.2338C22.2997 49.3143 21.0826 48.19 20.0242 46.9005C19.872 46.7155 19.621 46.6227 19.3825 46.6689C18.8136 46.7814 18.2184 46.8409 17.6164 46.8409C13.7009 46.8409 10.2484 44.4599 8.8459 40.8617H10.6185C10.8565 40.8617 11.0748 40.7362 11.1938 40.5309C11.3128 40.3261 11.3128 40.0746 11.1938 39.8693L6.2199 31.2511C6.10087 31.0462 5.88264 30.9203 5.64458 30.9203C5.40652 30.9203 5.18829 31.0458 5.06926 31.2511L2.64202 35.4444C2.62864 35.4642 2.62218 35.4776 2.61573 35.4975L0.0892721 39.8693C-0.0297574 40.0742 -0.0297574 40.3256 0.0892721 40.5309C0.208302 40.7358 0.426529 40.8617 0.664588 40.8617H2.85372C4.43437 47.6876 10.5525 52.5816 17.6161 52.5816C19.6663 52.5816 21.6506 52.1784 23.5224 51.3844C23.7471 51.2916 23.8994 51.0803 23.9257 50.8418C23.9524 50.6042 23.8403 50.3726 23.6419 50.2337L23.6422 50.2338ZM17.6163 51.259C11.0023 51.259 5.29411 46.5564 4.03744 40.0747C3.97792 39.7638 3.70664 39.5391 3.38922 39.5391H1.81508L3.79244 36.113C3.7989 36.0996 3.81228 36.0798 3.81874 36.0599L5.64434 32.9051L9.47412 39.539H7.93316C7.72831 39.539 7.54285 39.6318 7.41736 39.7905C7.29187 39.9492 7.24527 40.154 7.29187 40.3529C7.31171 40.4322 7.33154 40.5116 7.35784 40.5909L7.38414 40.6837C8.81301 45.1547 12.927 48.1642 17.6162 48.1642C18.1717 48.1642 18.7207 48.1245 19.2499 48.0387C20.0503 48.978 20.9366 49.8311 21.8953 50.585C20.5199 51.0343 19.0846 51.259 17.6162 51.259L17.6163 51.259Z" fill="white"/>
<path d="M50.9051 12.0507C50.7861 11.8458 50.5679 11.7199 50.3298 11.7199H48.1407C46.56 4.89405 40.4419 0 33.3783 0C31.3281 0 29.3437 0.403233 27.472 1.19726C27.2473 1.29 27.095 1.5013 27.0687 1.73983C27.0424 1.97789 27.1545 2.21595 27.3529 2.34836C28.6955 3.26785 29.9126 4.39222 30.9709 5.68173C31.1232 5.87365 31.3742 5.95947 31.6127 5.91332C32.1815 5.80075 32.7767 5.74124 33.3788 5.74124C37.2943 5.74124 40.7467 8.1223 42.1492 11.7205L40.3822 11.72C40.1442 11.72 39.9259 11.8455 39.8069 12.0508C39.6879 12.2556 39.6879 12.5071 39.8069 12.7124L44.7808 21.3306C44.8998 21.5355 45.1181 21.6614 45.3561 21.6614C45.5942 21.6614 45.8124 21.5359 45.9314 21.3306L48.3587 17.1373C48.372 17.1175 48.3785 17.1041 48.385 17.0843L50.9114 12.7124C51.0245 12.5071 51.0245 12.2556 50.9054 12.0508L50.9051 12.0507ZM47.2077 16.4686C47.2013 16.482 47.1879 16.5018 47.1814 16.5217L45.3558 19.6765L41.5261 13.0426H43.067C43.2719 13.0426 43.4573 12.9498 43.5828 12.7911C43.7083 12.6324 43.7549 12.4276 43.7083 12.2287C43.6885 12.1494 43.6686 12.07 43.6423 11.9907L43.616 11.8979C42.1872 7.42696 38.0732 4.41744 33.384 4.41744C32.8285 4.41744 32.2795 4.45712 31.7503 4.54293C30.9499 3.60361 30.0636 2.75052 29.1049 1.99664C30.4806 1.54681 31.916 1.32213 33.3776 1.32213C39.9917 1.32213 45.6998 6.02473 46.9565 12.5064C47.016 12.8173 47.2873 13.042 47.6047 13.042H49.1789L47.2077 16.4686Z" fill="white"/>
</svg>
