<svg width="64" height="55" viewBox="0 0 64 55" fill="none" xmlns="http://www.w3.org/2000/svg">
<path d="M48.6587 29.914C46.4053 29.914 44.285 30.1225 42.3874 30.4944V7.39117C42.3874 3.76354 35.8346 0.922607 27.4693 0.922607C19.1018 0.922607 12.5476 3.76354 12.5476 7.39117V34.881C5.3466 35.3607 0 37.9968 0 41.2775V47.0785C0 50.7085 6.55425 53.5518 14.9217 53.5518C22.0798 53.5518 27.9068 51.4692 29.4421 48.5943C30.9678 48.5105 32.4144 48.3302 33.7499 48.0694C33.8624 51.6542 40.3696 54.4494 48.662 54.4494C57.0257 54.4494 63.5764 51.6048 63.5764 47.9747V36.3878C63.5736 32.7574 57.0227 29.9141 48.6596 29.9141L48.6587 29.914ZM29.8373 41.2773C29.8373 39.6429 28.5069 38.1704 26.285 37.0424C26.3424 37.0443 26.4012 37.0453 26.4582 37.0467C26.7915 37.0561 27.1276 37.0622 27.467 37.0622C29.7209 37.0622 31.8417 36.8537 33.7397 36.4818V40.8725C32.4941 41.1305 31.1704 41.3164 29.8367 41.419L29.8373 41.2773ZM35.0899 39.1199C37.4233 41.347 42.5564 42.86 48.657 42.86C54.7565 42.86 59.8881 41.347 62.2218 39.1204V42.185C62.2218 45.1983 55.073 47.2993 48.657 47.2993C42.2398 47.2993 35.0899 45.1983 35.0899 42.185V39.1199ZM48.6582 31.2637C56.772 31.2637 62.223 33.913 62.223 36.3873C62.223 39.4058 55.0742 41.511 48.6582 41.511C42.241 41.511 35.0911 39.4063 35.0911 36.3873C35.0901 33.9126 40.5418 31.2637 48.6582 31.2637ZM27.4675 2.27228C33.8857 2.27228 41.0359 4.3746 41.0359 7.39124C41.0359 9.86594 35.5837 12.5149 27.4675 12.5149C19.349 12.5149 13.8956 9.86606 13.8956 7.39124C13.8951 4.37473 21.0481 2.27228 27.4675 2.27228ZM13.8956 10.1234C15.2984 11.4621 17.7194 12.5402 20.7482 13.1893C22.7578 13.62 25.0334 13.8643 27.4676 13.8643C29.9014 13.8643 32.176 13.62 34.1857 13.1893C37.214 12.5401 39.6331 11.4621 41.036 10.1242V13.1893C41.036 15.664 35.5838 18.3143 27.4676 18.3143C19.3492 18.3143 13.8957 15.664 13.8957 13.1893L13.8956 10.1234ZM13.8956 15.9225L13.896 15.9229C14.1855 16.1988 14.5174 16.4634 14.8893 16.7157C14.8945 16.7199 14.9001 16.7232 14.9053 16.727C15.2739 16.976 15.6806 17.2128 16.1227 17.4355C16.1364 17.442 16.1491 17.4491 16.1627 17.4557C16.6005 17.6751 17.0722 17.8808 17.5755 18.0719C17.599 18.0809 17.6235 18.0893 17.6475 18.0987C18.1455 18.2856 18.6733 18.4584 19.2278 18.6156C19.2635 18.626 19.2993 18.6354 19.3356 18.6453C19.5865 18.715 19.8426 18.7818 20.1043 18.8444C20.1349 18.8519 20.1636 18.8595 20.1947 18.8665C20.4781 18.9338 20.7676 18.9974 21.0632 19.0567C21.1084 19.0661 21.155 19.0741 21.2002 19.0835C21.4544 19.1334 21.7138 19.18 21.9764 19.2238C22.0339 19.2342 22.0904 19.2436 22.1478 19.253C22.4481 19.3015 22.7532 19.3462 23.0629 19.3858C23.1086 19.3919 23.1562 19.3971 23.2028 19.4027C23.4706 19.4366 23.7418 19.4663 24.0157 19.494C24.092 19.5016 24.1678 19.5091 24.2445 19.5162C24.5609 19.5453 24.881 19.5717 25.2053 19.592C25.2397 19.5938 25.275 19.5952 25.3094 19.5971C25.6022 19.6145 25.8987 19.6282 26.1967 19.639C26.2838 19.6419 26.3709 19.6451 26.458 19.648C26.7913 19.6574 27.1274 19.6635 27.4668 19.6635C27.8062 19.6635 28.1418 19.6569 28.4756 19.648C28.5627 19.6461 28.6498 19.6428 28.7359 19.64C29.0349 19.6296 29.3319 19.6155 29.6247 19.5981C29.6591 19.5962 29.6934 19.5948 29.7273 19.5929C30.0526 19.5727 30.3727 19.5463 30.6895 19.5171C30.7653 19.5105 30.8406 19.503 30.9155 19.495C31.1895 19.4672 31.4606 19.4375 31.728 19.4046C31.7751 19.3985 31.8226 19.3933 31.8692 19.3876C32.179 19.3472 32.4845 19.3024 32.7848 19.254C32.8409 19.245 32.8964 19.2351 32.9515 19.2257C33.2175 19.1819 33.4778 19.1339 33.7348 19.084C33.7786 19.0751 33.8224 19.068 33.8657 19.0586C34.1618 18.9993 34.4522 18.9353 34.737 18.8675C34.7662 18.8609 34.7945 18.8533 34.8237 18.8468C35.0877 18.7832 35.3448 18.7159 35.5976 18.6457C35.6319 18.6363 35.6663 18.6269 35.7002 18.6175C36.2557 18.4603 36.7834 18.2875 37.2833 18.0997C37.3064 18.0907 37.3299 18.0823 37.3535 18.0733C37.8567 17.8817 38.3289 17.6765 38.7667 17.4566C38.7804 17.45 38.7931 17.443 38.8067 17.4369C39.2492 17.2133 39.6564 16.9765 40.025 16.7274C40.0302 16.7242 40.0358 16.7199 40.0405 16.7166C40.4124 16.4643 40.7443 16.1988 41.0347 15.9239C41.0347 15.9239 41.0347 15.9234 41.0352 15.9234V18.9893C41.0352 22.0088 33.8836 24.113 27.4668 24.113C19.3484 24.113 13.8949 21.4642 13.8949 18.9893L13.8956 15.9225ZM13.8956 21.7216C14.1855 21.9989 14.5198 22.2648 14.8935 22.5181C14.8968 22.52 14.9001 22.5228 14.9039 22.5247C15.2739 22.7742 15.682 23.0119 16.126 23.236C16.1382 23.2421 16.1505 23.2482 16.1622 23.2543C16.601 23.4742 17.0745 23.6808 17.5787 23.8724C17.6009 23.8814 17.6234 23.8894 17.646 23.8979C18.1455 24.0857 18.6746 24.2585 19.2305 24.4157C19.2649 24.426 19.3007 24.4355 19.336 24.4449C19.5878 24.515 19.8444 24.5819 20.1075 24.6445C20.1372 24.652 20.1664 24.6595 20.1965 24.6661C20.4808 24.7334 20.7708 24.797 21.0664 24.8563C21.1102 24.8652 21.1554 24.8732 21.2001 24.8827C21.4558 24.9326 21.7156 24.9796 21.9797 25.0239C22.0362 25.0333 22.0922 25.0437 22.1496 25.0521C22.45 25.1006 22.755 25.1453 23.0648 25.1849C23.1114 25.191 23.1585 25.1962 23.2051 25.2018C23.4725 25.2348 23.7431 25.2654 24.0171 25.2922C24.0934 25.2997 24.1696 25.3073 24.2459 25.3143C24.5622 25.3435 24.8814 25.3699 25.2057 25.3901C25.242 25.392 25.2801 25.3934 25.3173 25.3962C25.6082 25.4137 25.9024 25.4273 26.1995 25.4372C26.2866 25.44 26.3737 25.4433 26.4607 25.4461C26.794 25.4556 27.1302 25.4617 27.4696 25.4617C27.809 25.4617 28.1446 25.4551 28.4784 25.4461C28.5655 25.4443 28.6525 25.441 28.7396 25.4381C29.0367 25.4278 29.3309 25.4146 29.6223 25.3972C29.6585 25.3953 29.6957 25.3939 29.7324 25.3911C30.0563 25.3708 30.3764 25.3445 30.6928 25.3153C30.7686 25.3087 30.8439 25.3012 30.9197 25.2932C31.1932 25.2663 31.4643 25.2367 31.7317 25.2028C31.7788 25.1967 31.8268 25.1919 31.8739 25.1858C32.1832 25.1458 32.4868 25.1016 32.7871 25.0531C32.846 25.0437 32.9039 25.0333 32.9618 25.0239C33.2245 24.9801 33.4819 24.9335 33.7352 24.8836C33.7809 24.8747 33.8275 24.8666 33.8736 24.8572C34.1678 24.7979 34.4559 24.7344 34.7379 24.6675C34.7718 24.6595 34.8038 24.6515 34.8372 24.643C35.0952 24.5809 35.3466 24.5155 35.5937 24.4467C35.6328 24.4359 35.6714 24.426 35.7105 24.4152C36.2612 24.2594 36.7861 24.0871 37.2813 23.9016C37.3091 23.8913 37.3355 23.8814 37.3628 23.871C37.8613 23.6813 38.3306 23.477 38.7652 23.2591C38.7821 23.2501 38.7981 23.2421 38.8151 23.2341C39.2538 23.0119 39.6586 22.777 40.0249 22.5294C40.0315 22.5247 40.039 22.519 40.0456 22.5143C40.4161 22.2625 40.7475 21.9989 41.0356 21.7239C41.036 21.7235 41.037 21.7235 41.0374 21.7225V24.7876V24.7881C41.037 26.1053 39.3819 27.501 36.5973 28.5037C34.35 29.2785 31.5128 29.7723 28.7156 29.8872C28.3061 29.9022 27.8923 29.9135 27.4678 29.9135C26.8657 29.9135 26.2579 29.8952 25.6497 29.8589C24.9149 29.8156 24.1801 29.7464 23.4565 29.6532C18.3936 29.0026 13.8956 27.1827 13.8956 24.7866L13.8966 21.7215L13.8956 21.7216ZM13.8956 27.5222L13.8974 27.524C14.1855 27.7985 14.5165 28.0626 14.8869 28.3144C14.8945 28.3191 14.902 28.3248 14.9091 28.3295C15.2753 28.5766 15.6806 28.8125 16.1198 29.0347C16.1358 29.0427 16.1523 29.0502 16.1683 29.0592C16.6038 29.2766 17.0722 29.481 17.5712 29.6711C17.599 29.682 17.6267 29.6914 17.654 29.7022C17.9003 29.7945 18.1516 29.8844 18.412 29.9696C18.4124 29.9696 18.4134 29.9701 18.4138 29.9701C18.677 30.0557 18.9477 30.1376 19.2245 30.2158C19.2631 30.2271 19.3021 30.2365 19.3412 30.2483C19.5888 30.317 19.8407 30.382 20.0982 30.4446C20.1311 30.4526 20.1641 30.4606 20.1975 30.4691C20.4795 30.5364 20.7676 30.5985 21.0613 30.6578C21.1084 30.6672 21.1564 30.6762 21.2035 30.6856C21.4558 30.735 21.7124 30.7816 21.9727 30.8245C22.0315 30.8348 22.0899 30.8447 22.1497 30.8541C22.4486 30.9021 22.7532 30.9473 23.0615 30.9869C23.1096 30.993 23.158 30.9982 23.2051 31.0038C23.4725 31.0377 23.7422 31.0674 24.0148 31.0942C24.0911 31.1022 24.1669 31.1093 24.2436 31.1163C24.5599 31.1455 24.8791 31.1719 25.2034 31.1921C25.2397 31.194 25.2769 31.1964 25.3141 31.1982C25.6054 31.2157 25.8997 31.2293 26.1967 31.2401C26.2838 31.243 26.3709 31.2463 26.458 31.2481C26.7913 31.2576 27.1274 31.2637 27.4668 31.2637C27.8062 31.2637 28.1418 31.2571 28.4756 31.2481C28.5627 31.2463 28.6498 31.243 28.7359 31.2401C29.033 31.2293 29.3286 31.2166 29.62 31.1982C29.6562 31.1964 29.6929 31.194 29.7292 31.1921C30.054 31.1719 30.3737 31.1455 30.69 31.1163C30.7658 31.1097 30.8406 31.1022 30.916 31.0947C31.1904 31.0669 31.462 31.0368 31.7303 31.0033C31.776 30.9972 31.824 30.9921 31.8702 30.9864C32.1799 30.9459 32.4845 30.9012 32.7848 30.8536C32.8422 30.8442 32.8987 30.8348 32.9571 30.8245C33.2198 30.7812 33.4782 30.7331 33.7334 30.6842C33.7786 30.6748 33.8247 30.6668 33.8699 30.6578C34.1646 30.5976 34.4541 30.5345 34.7379 30.4676C34.7685 30.4601 34.7987 30.4526 34.8293 30.4455C35.0896 30.3829 35.3447 30.3165 35.5952 30.2473C35.6324 30.2365 35.6696 30.2271 35.7072 30.2163C36.2594 30.0595 36.7848 29.8877 37.281 29.7013C37.3073 29.6909 37.3337 29.6815 37.3601 29.6716C37.86 29.4814 38.3298 29.2762 38.7657 29.0582C38.7808 29.0502 38.7968 29.0432 38.8123 29.0352C39.2515 28.8125 39.6573 28.5771 40.0236 28.329C40.0311 28.3239 40.0377 28.3187 40.0443 28.3149C40.4148 28.0631 40.7457 27.7995 41.0343 27.5245C41.0343 27.5241 41.0357 27.5231 41.0361 27.5226V30.5891C41.0361 30.6601 41.0159 30.7322 41.0055 30.8037C37.4726 31.7033 34.9136 33.2172 34.0549 35.0325C32.147 35.4561 29.9227 35.7127 27.4663 35.7127C21.0472 35.7127 13.8944 33.6079 13.8944 30.589L13.8956 27.5222ZM13.8956 33.3213C14.1865 33.5986 14.5207 33.865 14.8945 34.1192C14.8973 34.1206 14.8992 34.1225 14.902 34.1244C15.2659 34.3701 15.666 34.6041 16.1015 34.8244C15.7108 34.8117 15.3172 34.8037 14.9185 34.8037C14.5734 34.8037 14.2335 34.8103 13.8956 34.8192L13.8951 33.3213L13.8956 33.3213ZM14.919 36.1528C22.916 36.1528 28.4885 38.8535 28.4885 41.2778C28.4885 43.753 23.0359 46.4042 14.919 46.4042C6.80096 46.4042 1.34698 43.7535 1.34698 41.2778C1.34698 38.2566 8.49908 36.1528 14.919 36.1528ZM14.919 52.2025C8.4998 52.2025 1.34698 50.0978 1.34698 47.0789V44.0115C3.6814 46.24 8.8159 47.7535 14.919 47.7535C21.0203 47.7535 26.1547 46.2396 28.4885 44.0115V47.0789C28.4885 50.0973 21.3369 52.2025 14.919 52.2025ZM29.8382 47.0789V42.7829C31.2157 42.6911 32.5234 42.5197 33.7412 42.2806V46.6632C32.4929 46.9212 31.1681 47.1067 29.8313 47.2093C29.8331 47.165 29.8382 47.1226 29.8382 47.0789ZM62.2232 47.9752C62.2232 50.995 55.0745 53.1001 48.6585 53.1001C40.5428 53.1001 35.0913 50.4494 35.0913 47.9752V44.9153C37.4248 47.1391 42.5579 48.6501 48.6585 48.6501C54.7579 48.6501 59.8895 47.139 62.2232 44.9162V47.9752Z" fill="white"/>
</svg>
