<svg width="46" height="54" viewBox="0 0 46 54" fill="none" xmlns="http://www.w3.org/2000/svg">
<path d="M39.698 8.39791L31.5184 0.218337C31.4092 0.109169 31.2457 0.000380374 31.0277 0.000380374L0.654248 0C0.27235 0 0 0.327124 0 0.654249V49.6772C0 50.059 0.327124 50.3314 0.654248 50.3314H23.0117C23.3936 50.3314 23.666 50.0043 23.666 49.6772C23.666 49.35 23.3389 49.0229 23.0117 49.0229H1.30861V1.36326H30.3734V9.54283H38.5529V29.8282C38.5529 30.2101 38.8801 30.4824 39.2072 30.4824C39.5891 30.4824 39.8614 30.1553 39.8614 29.8282L39.8618 8.88847C39.9162 8.67051 39.8074 8.50657 39.6982 8.39778L39.698 8.39791ZM31.7363 2.2902L37.6256 8.17949H31.7363V2.2902Z" fill="white"/>
<path d="M33.4815 14.9414H6.37983C5.99794 14.9414 5.72559 14.6143 5.72559 14.2872C5.72559 13.9053 6.05271 13.6329 6.37983 13.6329H33.536C33.9179 13.6329 34.1903 13.9601 34.1903 14.2872C34.1906 14.6143 33.8631 14.9414 33.4816 14.9414H33.4815Z" fill="white"/>
<path d="M33.4815 25.0296H6.37983C5.99794 25.0296 5.72559 24.7024 5.72559 24.3753C5.72559 23.9934 6.05271 23.7211 6.37983 23.7211H33.536C33.9179 23.7211 34.1903 24.0482 34.1903 24.3753C34.1906 24.7021 33.8631 25.0296 33.4816 25.0296H33.4815Z" fill="white"/>
<path d="M33.4815 30.0464H6.37983C5.99794 30.0464 5.72559 29.7193 5.72559 29.3922C5.72559 29.0103 6.05271 28.7379 6.37983 28.7379H33.536C33.9179 28.7379 34.1903 29.065 34.1903 29.3922C34.1906 29.7737 33.8631 30.0464 33.4816 30.0464H33.4815Z" fill="white"/>
<path d="M33.4815 19.9583H6.37983C5.99794 19.9583 5.72559 19.6312 5.72559 19.304C5.72559 18.9221 6.05271 18.6498 6.37983 18.6498H33.536C33.9179 18.6498 34.1903 18.9769 34.1903 19.304C34.1906 19.6855 33.8631 19.9583 33.4816 19.9583H33.4815Z" fill="white"/>
<path d="M25.0838 35.1177H6.37983C5.99794 35.1177 5.72559 34.7906 5.72559 34.4635C5.72559 34.0816 6.05271 33.8092 6.37983 33.8092H25.0838C25.4657 33.8092 25.738 34.1363 25.738 34.4635C25.7928 34.7906 25.4657 35.1177 25.0838 35.1177Z" fill="white"/>
<path d="M19.9579 40.1345H6.37983C5.99794 40.1345 5.72559 39.8074 5.72559 39.4803C5.72559 39.0984 6.05271 38.826 6.37983 38.826H19.9579C20.3398 38.826 20.6122 39.1532 20.6122 39.4803C20.6122 39.8618 20.285 40.1345 19.9579 40.1345Z" fill="white"/>
<path d="M34.0814 40.2437H32.6637C32.6093 40.2437 32.5001 40.298 32.5001 40.4072V44.9877C32.5001 45.0968 32.5545 45.1512 32.6637 45.1512H34.0814C34.1358 45.1512 34.2449 45.0968 34.2449 44.9877V40.4072C34.1905 40.3528 34.1358 40.2437 34.0814 40.2437Z" fill="white"/>
<path d="M34.7356 33.3182C30.1003 33.3182 26.3381 37.0809 26.3381 41.7157C26.3381 46.351 30.1552 50.1136 34.7356 50.1136C36.2625 50.1136 37.7349 49.6773 39.0433 48.914L39.6432 48.5321L43.9509 52.8398C44.1145 53.0033 44.3872 53.1125 44.6599 53.1125C44.9327 53.1125 45.1506 53.0033 45.3689 52.8398C45.5325 52.6762 45.6417 52.4035 45.6417 52.1308C45.6417 51.858 45.5325 51.6401 45.3689 51.4217L41.17 47.2228L41.7155 46.405C42.6424 44.9873 43.1331 43.4057 43.1331 41.7154C43.1335 37.0809 39.3708 33.3182 34.7356 33.3182ZM34.7356 48.5868C30.9186 48.5868 27.8649 45.4783 27.8649 41.716C27.8649 37.9533 30.9729 34.845 34.7356 34.845C38.5527 34.845 41.6064 37.9534 41.6064 41.7157C41.6068 45.4788 38.5528 48.5868 34.7356 48.5868Z" fill="white"/>
<path d="M36.7534 41.7159H35.3357C35.2813 41.7159 35.1721 41.7703 35.1721 41.8795V45.0423C35.1721 45.1514 35.2265 45.2058 35.3357 45.2058H36.7534C36.8078 45.2058 36.9169 45.1514 36.9169 45.0423V41.8795C36.9169 41.7703 36.8622 41.7159 36.7534 41.7159Z" fill="white"/>
<path d="M31.5184 42.5339H30.1007C30.0463 42.5339 29.9371 42.5883 29.9371 42.6431V45.0425C29.9371 45.0969 29.9915 45.1517 30.1007 45.1517H31.5184C31.5728 45.1517 31.682 45.0973 31.682 45.0425V42.6431C31.682 42.5883 31.5728 42.5339 31.5184 42.5339Z" fill="white"/>
<path d="M39.3707 38.5532H38.0074C37.953 38.5532 37.8439 38.6076 37.8439 38.7168V44.9876C37.8439 45.0968 37.8983 45.1512 38.0074 45.1512H39.4251C39.4795 45.1512 39.5887 45.0968 39.5887 44.9876V38.7168C39.5343 38.6624 39.4799 38.5532 39.3707 38.5532Z" fill="white"/>
</svg>
