<svg width="50" height="51" viewBox="0 0 50 51" fill="none" xmlns="http://www.w3.org/2000/svg">
<g id="Group 9752">
<path id="Vector" d="M32.9041 47.9877C32.2937 48.5946 31.4214 48.8666 30.5743 48.7153L10.8085 45.1857C10.7724 45.1792 10.7353 45.1761 10.6987 45.1761L0.625182 45.1757C0.279889 45.1757 0 45.4552 0 45.8009C0 46.1462 0.279454 46.4261 0.625182 46.4261H10.6438L30.3548 49.9461C30.5824 49.987 30.8113 50.0067 31.0384 50.0067C32.059 50.0067 33.0499 49.6056 33.7854 48.8744L48.838 33.9167C49.6288 33.1307 50.0513 32.0411 49.995 30.9273C49.9388 29.813 49.4104 28.771 48.5441 28.0678C47.0749 26.8746 44.9578 26.8959 43.5131 28.1184L34.4772 35.7622H33.8045V34.9316C33.8045 32.4235 31.7628 30.3832 29.2539 30.3832H22.0705L11.3723 28.2608C9.66806 27.9221 7.92118 28.3611 6.57932 29.462C5.40007 30.4298 4.66323 31.8032 4.5024 33.2994H0.625372C0.28008 33.2994 0.000189885 33.5788 0.000189885 33.9246C0.000189885 34.2699 0.279645 34.5497 0.625372 34.5497H5.09359C5.43888 34.5497 5.71877 34.2703 5.71877 33.9246C5.71877 32.5652 6.32128 31.2908 7.37235 30.4286C8.42478 29.5653 9.79413 29.2226 11.1295 29.4869L21.8875 31.6209C21.9272 31.6288 21.9682 31.6331 22.0091 31.6331H29.2541C31.0743 31.6331 32.5547 33.1128 32.5547 34.9317V35.7622H20.6205C20.2752 35.7622 19.9953 36.0417 19.9953 36.3874C19.9953 36.7327 20.2748 37.0126 20.6205 37.0126H34.7054C34.8532 37.0126 34.9958 36.9603 35.1087 36.8648L44.3194 29.0732C45.3064 28.2375 46.7516 28.2231 47.7557 29.0383C48.3473 29.5179 48.7078 30.2299 48.7462 30.9897C48.7841 31.75 48.4959 32.4938 47.9558 33.0309L32.9041 47.9877Z" fill="white"/>
<path id="Vector_2" d="M24.1585 17.4004C22.9592 18.7001 21.7642 19.7995 21.0182 20.4243C20.7531 20.6453 20.7187 21.0394 20.9402 21.3045C21.1612 21.5687 21.5549 21.6049 21.8204 21.3834C21.9542 21.2701 23.4046 20.0476 24.9994 18.3373C26.5942 20.0476 28.0446 21.27 28.1789 21.383C28.2962 21.4806 28.4383 21.5281 28.5791 21.5281C28.7579 21.5281 28.9357 21.4519 29.0595 21.3041C29.2806 21.039 29.2457 20.6449 28.9806 20.4234C28.2347 19.7995 27.0392 18.7004 25.8399 17.4017C27.6453 15.313 29.3743 12.7478 29.3743 10.5827C29.3743 8.17054 27.4115 6.20825 24.9994 6.20825C22.5872 6.20825 20.6244 8.17054 20.6244 10.5827C20.6244 12.7469 22.3536 15.3125 24.1585 17.4004ZM24.9995 7.45813C26.7225 7.45813 28.1245 8.85937 28.1245 10.5827C28.1245 12.2882 26.6627 14.5059 24.999 16.4547C23.3359 14.5068 21.8745 12.2891 21.8745 10.5827C21.8745 8.85971 23.2765 7.45813 24.9995 7.45813Z" fill="white"/>
<path id="Vector_3" d="M15.1261 25.6247H34.874C35.2193 25.6247 35.4992 25.3453 35.4992 24.9996L35.4987 9.77067L36.7987 10.8044C36.9134 10.8955 37.0507 10.9399 37.1867 10.9399C37.3712 10.9399 37.553 10.8593 37.6768 10.7036C37.8908 10.4338 37.8464 10.0401 37.5761 9.82516L25.3885 0.135369C25.1613 -0.045123 24.8379 -0.045123 24.6107 0.135369L12.4231 9.82516C12.1528 10.0401 12.1084 10.4338 12.3224 10.7036C12.5378 10.9739 12.9302 11.018 13.2009 10.8043L14.5009 9.77067L14.5014 24.9996C14.5014 25.3448 14.7808 25.6247 15.1261 25.6247ZM24.9999 1.42259L34.2485 8.77609V24.3744H15.7518V8.77609L24.9999 1.42259Z" fill="white"/>
</g>
</svg>
