<svg width="46" height="47" viewBox="0 0 46 47" fill="none" xmlns="http://www.w3.org/2000/svg">
<g id="Group 9692">
<path id="Vector" d="M45.574 25.6649L34.5001 19.2761C34.2366 19.124 33.9118 19.124 33.6483 19.2761L22.5744 25.6649C22.3097 25.8178 22.1473 26.1007 22.1484 26.4061V39.1837C22.1488 39.4876 22.3112 39.7686 22.5744 39.9207L33.6483 46.3095C33.9118 46.4616 34.2366 46.4616 34.5001 46.3095L45.574 39.9207C45.8372 39.7686 45.9996 39.4876 46 39.1837V26.4061C46.0011 26.1007 45.8387 25.8178 45.574 25.6649ZM34.0747 20.9798L43.6408 26.5168L34.0747 31.8153L24.7045 26.4062L34.0747 20.9798ZM23.8526 27.8797L33.2229 33.2848V44.1075L23.8526 38.6984V27.8797ZM34.9265 44.1075V33.2974L44.2968 28.1096V38.6938L34.9265 44.1075Z" fill="white"/>
<path id="Vector_2" d="M19.5925 40.1414L12.7777 43.8978V33.5268L20.0184 29.2676C20.2382 29.1683 20.4055 28.9809 20.4789 28.7512C20.5523 28.5219 20.5253 28.2716 20.404 28.0632C20.2827 27.8548 20.0792 27.7077 19.8431 27.6578C19.6073 27.6084 19.3616 27.6609 19.1666 27.8027L11.9259 32.0619L2.36398 26.644L11.9259 21.2178L19.1666 25.0297C19.5811 25.2355 20.0838 25.0723 20.2991 24.6628C20.5143 24.2532 20.3633 23.747 19.9587 23.5223L12.2921 19.4931V19.4927C12.0374 19.3535 11.7293 19.3535 11.4745 19.4927L0.425926 25.7796C0.161242 25.9321 -0.00113306 26.215 5.97263e-06 26.5204V39.0682C-0.00113491 39.3736 0.161242 39.6565 0.425926 39.809L11.4998 46.083C11.7634 46.2351 12.0882 46.2351 12.3517 46.083L20.4442 41.6279C20.6571 41.5279 20.8191 41.3442 20.8922 41.1206C20.9652 40.897 20.9423 40.6532 20.8294 40.4471C20.7161 40.2406 20.5225 40.0904 20.2947 40.0318C20.0669 39.9729 19.8251 40.0113 19.6266 40.1372L19.5925 40.1414ZM1.70383 28.2156L11.0741 33.5355V43.8685L1.70383 38.57V28.2156Z" fill="white"/>
<path id="Vector_3" d="M11.9259 17.462C12.1518 17.462 12.3685 17.3722 12.5282 17.2125C12.688 17.0528 12.7777 16.836 12.7777 16.6101V8.71351L22.148 14.1186V22.5731C22.148 23.0435 22.5294 23.4249 22.9998 23.4249C23.4702 23.4249 23.8516 23.0435 23.8516 22.5731V14.1186L33.2219 8.71351V16.6101C33.2219 17.0805 33.6033 17.462 34.0737 17.462C34.5441 17.462 34.9256 17.0805 34.9256 16.6101V7.23988C34.9252 6.93603 34.7628 6.655 34.4996 6.50289L23.4257 0.114086C23.1622 -0.0380286 22.8374 -0.0380286 22.5739 0.114086L11.5 6.50289C11.2368 6.655 11.0744 6.93603 11.074 7.23988V16.6101C11.074 16.836 11.1638 17.0528 11.3235 17.2125C11.4832 17.3722 11.7 17.462 11.9259 17.462ZM22.9998 1.83483L32.37 7.23988L22.9998 12.6449L13.6296 7.23988L22.9998 1.83483Z" fill="white"/>
</g>
</svg>
