<svg width="50" height="55" viewBox="0 0 50 55" fill="none" xmlns="http://www.w3.org/2000/svg">
<path d="M37.7055 37.6165C37.7055 37.3676 37.6515 37.1182 37.6111 36.8693H37.6116C37.4928 36.1357 37.3077 35.4147 37.0593 34.7144C40.3544 32.9442 42.6921 29.7998 43.4384 26.1345C44.1842 22.4688 43.2617 18.6612 40.9209 15.7435C38.58 12.8259 35.0626 11.0999 31.3227 11.0337C30.6943 7.9127 28.9072 5.14536 26.3216 3.28832C23.7356 1.4308 20.5424 0.621977 17.3843 1.02308C14.2257 1.42465 11.3368 3.00697 9.29746 5.45208C7.25862 7.89719 6.22111 11.0238 6.39353 14.2025C6.5659 17.3816 7.93543 20.3776 10.227 22.5879C12.5186 24.7982 15.562 26.0588 18.745 26.1161C18.8478 26.5905 18.9779 27.0578 19.1357 27.5166H12.1197C8.90537 27.5166 5.82241 28.7937 3.54971 31.0664C1.27702 33.339 0 36.422 0 39.6364V43.6765V43.6761C0 43.855 0.0709191 44.026 0.197258 44.1523C0.323601 44.2787 0.494564 44.3496 0.67303 44.3496H12.7194C11.8825 46.022 11.4471 47.866 11.4466 49.7362V53.7764V53.7759C11.4466 53.9549 11.5175 54.1258 11.6439 54.2522C11.7702 54.3785 11.9412 54.4494 12.1201 54.4494H49.1527C49.3312 54.4494 49.5021 54.3785 49.6285 54.2522C49.7548 54.1258 49.8257 53.9549 49.8257 53.7759V49.7363C49.8257 46.5219 48.5487 43.4389 46.276 41.1662C44.0033 38.8935 40.9203 37.6165 37.706 37.6165L37.7055 37.6165ZM31.2959 12.2059C35.343 12.3252 39.0267 14.574 40.9823 18.1196C42.9376 21.6656 42.8741 25.981 40.8151 29.4678C38.7561 32.9546 35.0081 35.094 30.959 35.094C26.9095 35.094 23.1615 32.9546 21.1025 29.4678C19.0434 25.981 18.9801 21.6656 20.9358 18.1196C22.891 14.5741 26.5746 12.3253 30.6222 12.2059H31.2959ZM18.5028 23.6522C18.5028 24.036 18.5028 24.4197 18.5634 24.7968H18.5629C15.7463 24.6888 13.073 23.5277 11.0717 21.543C9.07034 19.5583 7.88686 16.8942 7.75532 14.079C7.62381 11.2633 8.55423 8.50069 10.362 6.33837C12.1693 4.17558 14.723 2.77026 17.5175 2.40018C20.3115 2.03008 23.1427 2.72237 25.4511 4.33994C27.7595 5.9575 29.3766 8.38286 29.9826 11.1357C26.8513 11.4193 23.9388 12.8636 21.8174 15.1842C19.6958 17.5049 18.5183 20.5352 18.516 23.6791L18.5028 23.6522ZM1.34641 43.0042V39.6376C1.34641 36.78 2.4816 34.04 4.50163 32.0196C6.52219 29.9995 9.26224 28.8643 12.1196 28.8643H19.6672C21.0114 31.8138 23.4428 34.1298 26.4539 35.3289C29.4649 36.5285 32.8231 36.5186 35.8271 35.3012C35.9976 35.8193 36.1347 36.3481 36.2376 36.8835C36.2845 37.1324 36.3118 37.3818 36.3386 37.6307L23.5659 37.6312C19.5099 37.6237 15.7191 39.6452 13.4661 43.0174L1.34641 43.0042ZM48.4788 53.1039H12.7928V49.7374C12.7895 47.846 13.2865 45.9874 14.2337 44.3507L14.8532 43.3944C16.8817 40.6093 20.1201 38.9627 23.5661 38.964H37.7058C40.5633 38.964 43.3034 40.0992 45.3238 42.1192C47.3439 44.1398 48.479 46.8798 48.479 49.7372L48.4788 53.1039Z" fill="white"/>
</svg>
