<svg width="40" height="50" viewBox="0 0 40 50" fill="none" xmlns="http://www.w3.org/2000/svg">
<g id="Group 9751">
<path id="Vector" d="M4.89796 31.0804C3.43932 29.107 0.966862 24.2021 0.293262 19.9417C-0.383682 15.6614 0.958557 9.99132 3.41558 6.75287C6.3712 2.86508 11.4541 0.29778 16.68 0.0529509C22.6768 -0.225229 26.8146 0.584358 30.0967 2.67837C34.3229 5.3749 35.6431 9.50847 36.054 11.7323C36.108 12.0238 36.1525 12.2915 36.1941 12.5385C36.2789 13.0458 36.3463 13.4462 36.4453 13.7834C36.8054 15.0089 37.0894 15.9768 36.38 17.6001C35.98 18.517 36.2602 19.5411 37.2869 20.92L37.6399 21.3911C39.1672 23.4232 40.1547 24.849 39.98 26.1006C39.7721 27.6552 38.2972 28.1368 37.6669 28.3426L37.6391 28.3517C37.58 28.3708 37.5272 28.3875 37.4869 28.4033C37.4332 28.4249 37.3771 28.444 37.3197 28.4623C37.3572 28.6066 37.4299 28.8241 37.5705 29.133L37.6308 29.2615C37.8428 29.7085 38.3796 30.8395 37.5102 31.9347C37.6549 32.2628 37.6674 32.5713 37.6578 32.82L37.6574 32.8349C37.657 32.8474 37.6561 32.8599 37.6565 32.8769C37.669 33.5372 37.3031 33.9743 37.0607 34.2632C36.8091 34.5638 36.7567 34.6266 36.8374 34.963C37.4066 37.2994 36.901 38.5611 36.5488 39.1053C36.1721 39.687 35.6137 40.0613 34.9334 40.1868C32.9911 40.5436 31.6023 40.4076 30.3769 40.2879L30.3644 40.2866C29.8056 40.2321 29.2754 40.1806 28.7635 40.1893C28.1298 40.1993 27.5328 40.5852 27.4225 40.922C27.0786 41.984 26.7472 43.8343 26.9452 45.5546C27.0745 46.688 27.2508 47.054 27.6321 47.8157L28.1431 48.5047C28.2961 48.7114 28.2529 49.0029 28.0466 49.1563C27.9635 49.2183 27.8662 49.2478 27.7697 49.2478C27.6275 49.2478 27.4865 49.1829 27.3955 49.0594L26.8358 48.3052L26.8175 48.2686C26.4 47.4345 26.1705 46.975 26.02 45.6602C25.805 43.7919 26.1639 41.7857 26.5368 40.6334C26.7842 39.8775 27.7556 39.2733 28.7481 39.2579C29.3161 39.2475 29.8691 39.302 30.455 39.3593L30.4674 39.3606C31.6321 39.4745 32.9515 39.6034 34.7648 39.2704C35.1923 39.1914 35.5299 38.9652 35.7669 38.5988C36.4393 37.5597 36.0634 35.7214 35.932 35.1816C35.7412 34.3875 36.0489 34.0203 36.3466 33.6648C36.5445 33.4286 36.7308 33.2057 36.7254 32.8984C36.7245 32.8647 36.7254 32.8311 36.7266 32.7974L36.727 32.7841C36.7383 32.5022 36.6921 32.3238 36.5628 32.1471L36.3241 31.8206L36.6144 31.5383C37.2875 30.8834 37.0697 30.2514 36.7886 29.6585L36.7254 29.5237C36.374 28.7532 36.2663 28.1969 36.4139 27.9146L36.4721 27.8027L36.579 27.7358C36.6472 27.6929 36.7158 27.6696 36.9387 27.6039C37.0073 27.584 37.085 27.5603 37.1433 27.537C37.2006 27.5145 37.2713 27.4913 37.3512 27.4651L37.3782 27.4563C38.1271 27.2118 38.9367 26.8755 39.0569 25.9735C39.1824 25.0754 38.2402 23.7394 36.8947 21.9488L36.5404 21.4757C35.2897 19.7962 34.9766 18.4851 35.5263 17.2256C36.1001 15.9125 35.8934 15.2094 35.5508 14.0426C35.4365 13.653 35.3616 13.2073 35.2751 12.6904C35.2344 12.448 35.1907 12.1856 35.1375 11.8996C34.7541 9.82468 33.5246 5.96926 29.5952 3.46189C26.4858 1.47802 22.5156 0.712559 16.7236 0.981978C11.765 1.214 6.94998 3.64072 4.15743 7.31476C1.83762 10.3727 0.571857 15.7378 1.21352 19.7947C1.86302 23.9021 4.24355 28.6261 5.64685 30.5246C7.12881 32.5246 7.81784 33.9695 7.88054 35.2104C8.07638 39.0338 7.2402 42.7049 4.89873 48.3045L4.88293 48.3424L4.44259 49.0268C4.3033 49.2434 4.01514 49.3058 3.79891 49.1665C3.58269 49.0272 3.51991 48.739 3.6592 48.5228L4.05506 47.9074C6.3258 42.4703 7.13746 38.9213 6.9499 35.2583C6.89751 34.2133 6.26464 32.9247 4.89834 31.0806L4.89796 31.0804Z" fill="white"/>
<path id="Vector_2" d="M6.21046 13.6283L6.63708 13.5035C9.06706 12.7933 11.631 13.1101 13.8552 14.3962C14.5109 14.7755 15.1122 15.2324 15.6506 15.7493C15.5101 15.0952 15.4357 14.42 15.4357 13.7305C15.4357 11.1492 16.4457 8.75868 18.2803 6.99942L18.6025 6.69006L18.9248 6.99942C20.7593 8.75911 21.7694 11.1496 21.7694 13.7305C21.7694 14.4204 21.6949 15.0956 21.5544 15.7493C22.0929 15.232 22.6941 14.7755 23.3498 14.3962C25.5741 13.1101 28.1375 12.7929 30.5679 13.5035L30.9946 13.6283L30.8898 14.0603C30.2985 16.4994 28.6976 18.6279 26.4984 19.8999C25.0509 20.7369 23.4596 21.1635 21.855 21.1635C20.9943 21.1635 20.129 21.0409 19.2807 20.7926L18.8541 20.6679L18.8978 20.4878L18.6025 20.771L18.3077 20.4883L18.3514 20.6683L17.9248 20.793C17.0761 21.0413 16.2112 21.164 15.3504 21.164C13.7458 21.164 12.1546 20.7373 10.7071 19.9003C8.50746 18.6284 6.90702 16.5003 6.3157 14.0607L6.21046 13.6283ZM26.0321 19.0937C27.9073 18.0092 29.255 16.3123 29.865 14.2815C27.8146 13.8017 25.6837 14.1231 23.8162 15.2025C21.941 16.287 20.5933 17.9839 19.9833 20.0147C22.0337 20.4946 24.1647 20.1731 26.0321 19.0937ZM20.8382 13.7305C20.8382 11.5617 20.0477 9.54375 18.6023 7.99781C17.1574 9.54343 16.3665 11.5617 16.3665 13.7305C16.3665 15.8994 17.157 17.9173 18.6023 19.463C20.0473 17.9173 20.8382 15.8994 20.8382 13.7305ZM11.1726 19.0937C13.04 20.1732 15.171 20.495 17.2214 20.0147C16.6114 17.9839 15.2637 16.2869 13.3884 15.2025C11.521 14.1226 9.38963 13.8017 7.33966 14.2815C7.94966 16.3119 9.29733 18.0093 11.1726 19.0937Z" fill="white"/>
</g>
</svg>
