<svg width="60" height="33" viewBox="0 0 60 33" fill="none" xmlns="http://www.w3.org/2000/svg">
<path id="Vector" d="M30.2239 0.0392172L59.6277 11.2598C60.1241 11.4458 60.1241 12.3114 59.6277 12.4974L55.4828 14.0859V21.9649C55.873 22.1933 56.1365 22.6113 56.1365 23.0994C56.1365 23.8286 55.5512 24.4193 54.8297 24.4193C54.1082 24.4193 53.523 23.8282 53.523 23.0994C53.523 22.6113 53.7865 22.1933 54.1766 21.9649V14.5809L48.316 16.8083L48.9482 25.6776C49.0211 26.7117 48.3493 27.6284 47.3557 28.4415C46.3617 29.2545 44.9619 30.0193 43.2513 30.6896C39.8307 32.0303 35.1488 33 29.9998 33C24.8507 33 20.1679 32.0304 16.7482 30.6896C15.0381 30.0193 13.638 29.2545 12.6438 28.4415C11.6498 27.6284 10.978 26.7117 11.0514 25.6776L11.6845 16.8083L0.372265 12.4975C-0.124088 12.3115 -0.124088 11.446 0.372265 11.2599L29.7761 0.0393359C30.0427 -0.035711 30.1398 0.0153952 30.2255 0.0393359L30.2239 0.0392172ZM29.9992 1.35919L2.43312 11.8786L29.9992 22.3981L57.5653 11.8786L29.9992 1.35919ZM47.0488 17.3028L30.2232 23.7177C30.0797 23.7706 29.9174 23.7706 29.7738 23.7177L12.9483 17.3028L12.3562 25.7803C12.3321 26.1242 12.6242 26.7269 13.4588 27.4097C14.2933 28.0925 15.5951 28.8163 17.2158 29.4516C20.4578 30.7223 25.012 31.679 29.9983 31.679C34.9846 31.679 39.5389 30.7218 42.7808 29.4516C44.4021 28.8162 45.7033 28.0925 46.5379 27.4097C47.3724 26.7269 47.665 26.1242 47.6404 25.7803L47.0488 17.3028Z" fill="white"/>
</svg>
