<svg width="17" height="10" viewBox="0 0 17 10" fill="none" xmlns="http://www.w3.org/2000/svg">
<path id="Vector" d="M1.1417 0.000133618C0.920318 0.000133618 0.715795 0.0650575 0.541117 0.174383L7.61079 5.92536C7.97988 6.22557 8.37089 6.22557 8.74053 5.92536L15.8224 0.174383C15.6478 0.0649236 15.4433 0 15.2219 0H1.14163L1.1417 0.000133618ZM0.0654338 0.769288C0.0234921 0.889613 0 1.01866 0 1.15387V8.8461C0 9.48527 0.509117 10 1.14171 10H15.2219C15.8543 10 16.3636 9.48545 16.3636 8.8461V1.15387C16.3636 1.01865 16.3401 0.889607 16.2982 0.769288L9.2163 6.52644C8.6027 7.02465 7.74865 7.02544 7.13519 6.52644L0.0654338 0.769288Z" fill="#034C9F"/>
</svg>
