<svg width="41" height="52" viewBox="0 0 41 52" fill="none" xmlns="http://www.w3.org/2000/svg">
<path d="M26.795 26.0368H26.4353V21.7041C26.4353 21.6529 26.4168 21.607 26.4053 21.5598C29.7999 19.5283 32.0835 15.835 32.0835 11.6112C32.0835 5.20891 26.8532 0 20.4246 0C13.9959 0 8.76563 5.20891 8.76563 11.6112C8.76563 15.8681 11.0845 19.5867 14.5234 21.6079C14.5183 21.6406 14.5035 21.6705 14.5035 21.7041V26.0368H14.2086C6.37373 26.0368 0 33.132 0 41.854V51.3493C0 51.7091 0.296324 52 0.662923 52H40.3371C40.7037 52 41 51.7091 41 51.3493V41.8486C41.0009 33.1292 34.6278 26.0371 26.795 26.0371L26.795 26.0368ZM22.5651 30.6885C22.4153 31.6963 21.537 32.4755 20.47 32.4755C19.3785 32.4755 18.4872 31.6618 18.367 30.6223L20.3682 29.4206L22.5651 30.6885ZM19.1076 33.4996C19.5265 33.677 19.9864 33.7773 20.47 33.7773C20.954 33.7773 21.4135 33.677 21.8319 33.5L23.1601 44.5032C22.3955 46.2212 21.5154 47.9887 20.5001 49.7679C19.4641 47.9514 18.5677 46.1472 17.7915 44.3952L19.1076 33.4996ZM24.1974 42.0352L23.0588 32.6052C23.3736 32.2513 23.6103 31.8356 23.7545 31.375L26.9647 33.2292C26.3836 35.6808 25.5076 38.719 24.1974 42.0352ZM17.173 31.3392C17.3154 31.8134 17.5567 32.2422 17.8803 32.6057L16.757 41.9149C15.4727 38.6427 14.6083 35.6465 14.0345 33.2238L17.173 31.3392ZM18.4309 48.7352C10.2022 41.237 8.97712 30.842 8.81215 28.7197C9.73534 28.2364 10.6969 27.8748 11.6718 27.6438C11.8739 29.4289 13.1442 38.7263 18.4309 48.735V48.7352ZM29.3294 27.644C30.1948 27.8491 31.0504 28.1554 31.877 28.5601C31.7702 30.1865 30.7874 40.4696 22.8795 48.1458C27.9102 38.3624 29.132 29.3907 29.3294 27.6448V27.644ZM28.0225 27.4107C27.9661 27.9317 27.7668 29.5498 27.2662 31.8936L22.04 28.8759C23.2795 28.6745 24.4916 28.2379 25.6061 27.5555L25.9621 27.3377H26.7951C27.2029 27.3381 27.6129 27.3635 28.0225 27.4107ZM30.718 10.814C26.6203 9.94502 24.51 7.68889 23.7924 6.75223C24.9514 5.99624 26.1339 5.09326 27.3206 4.00687C27.3307 3.99779 27.3344 3.98554 27.3437 3.97556C29.2493 5.6954 30.509 8.1072 30.718 10.814ZM20.4256 1.30053C22.6127 1.30053 24.6398 1.98664 26.3119 3.14782C18.8635 9.89733 11.4595 9.16211 10.4358 9.01969C11.5916 4.5877 15.6255 1.30053 20.4259 1.30053H20.4256ZM10.0922 11.6108C10.0922 11.1656 10.1301 10.73 10.1851 10.2998C10.4537 10.343 11.1346 10.4323 12.141 10.4323C14.414 10.4323 18.3116 9.96542 22.6626 7.44698C23.4707 8.54785 25.888 11.2129 30.7314 12.1445C30.4503 17.5812 25.943 21.9216 20.4252 21.9216C14.7274 21.9211 10.0922 17.2958 10.0922 11.6108ZM20.4256 23.222C22.0926 23.222 23.675 22.8662 25.11 22.2359V26.3272L24.9047 26.452C22.1869 28.1169 18.8048 28.125 16.0783 26.4742L15.8305 26.3245V22.2786C17.2414 22.884 18.7938 23.222 20.4256 23.222ZM14.9794 27.3382L15.3829 27.5824C16.4458 28.2258 17.5964 28.646 18.7743 28.8543L13.733 31.8801C13.2346 29.5446 13.0358 27.9327 12.9794 27.4122C13.3909 27.3646 13.8019 27.3387 14.2109 27.3387L14.9794 27.3382ZM1.32585 41.8544C1.32585 36.1745 4.01087 31.8682 7.55283 29.4722C7.92451 32.8692 9.77642 43.418 18.6962 50.6994H1.32549L1.32585 41.8544ZM39.6757 50.6999H21.9819C31.0899 43.2643 32.828 32.4269 33.1461 29.2718C36.8371 31.6224 39.6759 36.0109 39.6759 41.8504L39.6757 50.6999Z" fill="white"/>
</svg>
