<svg width="47" height="46" viewBox="0 0 47 46" fill="none" xmlns="http://www.w3.org/2000/svg">
<path d="M23 9.60344C18.8353 9.60344 14.9071 11.5404 12.3712 14.8442C9.83526 18.1484 8.98079 22.4439 10.0587 26.4675C11.1365 30.4904 14.024 33.7832 17.8717 35.3774C21.7198 36.9713 26.0901 36.685 29.6972 34.6026C33.3043 32.5202 35.7374 28.8787 36.2814 24.7496C36.8249 20.6202 35.4172 16.4729 32.4722 13.5279C29.9656 11.0074 26.5545 9.5944 22.9997 9.604L23 9.60344ZM31.6068 31.6067C28.9312 34.2827 25.1635 35.562 21.4116 35.0682C17.6596 34.5743 14.3511 32.3637 12.4589 29.0865C10.567 25.8099 10.3065 21.8391 11.7545 18.3434C13.2022 14.8472 16.1941 12.2234 19.8489 11.2439C23.5041 10.2643 27.4068 11.0405 30.4091 13.3437C33.4113 15.6474 35.1714 19.216 35.1714 23.0001C35.1807 26.23 33.897 29.3294 31.6067 31.6069L31.6068 31.6067ZM46.003 20.8891L46.0034 20.8895C46.0016 20.53 45.8579 20.1862 45.6038 19.9321C45.3498 19.678 45.006 19.5343 44.6464 19.5326H42.7127C42.1381 19.5401 41.6366 19.1441 41.5112 18.5834C41.0452 16.6232 40.269 14.7503 39.2119 13.0352C38.9042 12.5499 38.9785 11.9153 39.3902 11.5143L40.7561 10.148C41.0102 9.89322 41.1531 9.54836 41.1531 9.18852C41.1531 8.82901 41.0102 8.4838 40.7561 8.22938L37.7707 5.24393C37.5155 4.99127 37.1706 4.84975 36.8115 4.84975C36.452 4.84975 36.1075 4.99127 35.852 5.24393L34.4861 6.60981C34.0848 7.02114 33.4509 7.09547 32.9652 6.78813C31.2502 5.73101 29.3768 4.95485 27.4167 4.48882C26.856 4.36303 26.4604 3.86199 26.4676 3.28733V1.35653C26.4669 0.997013 26.3239 0.652157 26.0695 0.397753C25.8154 0.143313 25.4705 0.000356795 25.1107 0H20.8888C20.5293 0.000357344 20.1844 0.143303 19.93 0.397753C19.6756 0.652203 19.5326 0.997059 19.5323 1.35653V3.28733C19.5398 3.86198 19.1435 4.36339 18.5831 4.48882C16.6229 4.95483 14.75 5.73101 13.0349 6.78813C12.5493 7.09547 11.9153 7.02114 11.514 6.60981L10.1477 5.24356H10.1474C9.89295 4.98948 9.54808 4.84689 9.18861 4.84689C8.82874 4.84689 8.48389 4.98948 8.22948 5.24356L5.24365 8.22902V8.22866C4.99099 8.48418 4.84912 8.82904 4.84912 9.18816C4.84912 9.54732 4.99099 9.89218 5.24365 10.1473L6.6099 11.5136V11.5139C7.02123 11.9149 7.09556 12.5492 6.78823 13.0345C5.73147 14.7495 4.95531 16.6228 4.48891 18.5829C4.36347 19.1433 3.86209 19.5396 3.28743 19.5321H1.35625C0.996739 19.5325 0.651883 19.6754 0.397753 19.9299C0.143313 20.1839 0.000356795 20.5288 0 20.8883V25.1106C0.00178681 25.4698 0.145445 25.8139 0.399181 26.0676C0.653265 26.3217 0.997059 26.4654 1.35621 26.4675H3.28776H3.2874C3.86204 26.4604 4.36309 26.856 4.48888 27.4167C4.95453 29.3769 5.73071 31.2501 6.78783 32.9651C7.09553 33.4504 7.02119 34.0847 6.60986 34.4861L5.24361 35.852C4.99096 36.1075 4.84908 36.452 4.84908 36.8115C4.84908 37.1706 4.99096 37.5155 5.24361 37.7706L8.22907 40.7564H8.22872C8.48352 41.0105 8.82838 41.1531 9.18822 41.1531C9.54773 41.1531 9.89294 41.0105 10.1474 40.7564L11.5136 39.3902H11.514C11.9149 38.9789 12.5492 38.9045 13.0346 39.2119C14.7495 40.2686 16.6229 41.0448 18.583 41.5112C19.1433 41.6366 19.5397 42.138 19.5322 42.7127V44.6435C19.5325 45.003 19.6755 45.3478 19.9299 45.6022C20.1844 45.8566 20.5292 45.9996 20.8887 46H25.1106C25.4704 45.9996 25.8153 45.8567 26.0693 45.6022C26.3238 45.3478 26.4667 45.0029 26.4675 44.6435V42.7127C26.4603 42.138 26.8559 41.637 27.4166 41.5112C29.3768 41.0455 31.2501 40.2694 32.9651 39.2119C33.4504 38.9042 34.085 38.9785 34.486 39.3902L35.8523 40.7564H35.8526C36.1071 41.0105 36.4523 41.1531 36.8118 41.1531C37.1716 41.1531 37.5165 41.0105 37.7713 40.7564L40.7567 37.7706H40.7564C41.0104 37.5162 41.153 37.1713 41.153 36.8115C41.153 36.452 41.0104 36.1071 40.7564 35.8527L39.3901 34.4861C38.9788 34.0848 38.9044 33.4508 39.2118 32.9651C40.2689 31.2501 41.0451 29.3768 41.5104 27.4167C41.6369 26.8563 42.1379 26.4604 42.7126 26.4675H44.6434C45.0029 26.4668 45.3478 26.3239 45.6022 26.0694C45.8566 25.8153 45.9996 25.4705 45.9999 25.1107L46.003 20.8891ZM44.6465 25.244H42.7127C42.1588 25.2426 41.6209 25.4288 41.1864 25.7719C40.7518 26.1153 40.4463 26.5956 40.3194 27.1346C39.8838 28.9682 39.1573 30.72 38.1677 32.3239C37.8764 32.7946 37.7527 33.3503 37.8174 33.9002C37.8821 34.4498 38.1308 34.9619 38.5232 35.3522L39.8895 36.7181C39.9377 36.7713 39.9377 36.8524 39.8895 36.9057L36.904 39.8911L36.9044 39.8908C36.8515 39.939 36.7704 39.939 36.7175 39.8908L35.352 38.5235C34.9614 38.1311 34.4496 37.8828 33.8996 37.8188C33.35 37.7545 32.7947 37.8785 32.3243 38.1701C30.7201 39.1592 28.9683 39.8855 27.135 40.3218C26.5957 40.4483 26.1154 40.7539 25.772 41.1881C25.4286 41.6227 25.2424 42.1605 25.2438 42.7145V44.6453C25.2395 44.7167 25.1831 44.7736 25.1116 44.7778H20.8886C20.8175 44.7736 20.7607 44.7167 20.7564 44.6453V42.713C20.7582 42.1591 20.572 41.6212 20.2286 41.1866C19.8855 40.7521 19.4052 40.4469 18.8659 40.3204C17.0326 39.884 15.2805 39.1575 13.6762 38.1686C13.2055 37.877 12.6498 37.7534 12.1001 37.8177C11.5501 37.8824 11.0384 38.1311 10.6478 38.5235L9.28155 39.8897H9.28119C9.2283 39.9383 9.14754 39.9383 9.09428 39.8897L6.10882 36.9039H6.10918C6.08524 36.8789 6.07237 36.8453 6.07309 36.811C6.07237 36.776 6.08524 36.7424 6.10918 36.717L7.47644 35.3522C7.86883 34.9616 8.1172 34.4499 8.18116 33.8999C8.24549 33.3503 8.12148 32.7949 7.82987 32.3246C6.84073 30.7204 6.11415 28.9685 5.67813 27.1353C5.55162 26.596 5.24607 26.1156 4.81187 25.7723C4.37731 25.4289 3.83946 25.2427 3.28552 25.2441H1.35571C1.28495 25.2391 1.2292 25.1819 1.22598 25.1108V20.8889C1.23063 20.8178 1.28709 20.7613 1.35821 20.7567H3.28975C3.84331 20.7585 4.38118 20.5723 4.81573 20.2289C5.25029 19.8858 5.55548 19.4055 5.682 18.8662C6.11834 17.0329 6.84487 15.281 7.83402 13.6768C8.12527 13.2058 8.2482 12.6501 8.18352 12.1002C8.11848 11.5502 7.8694 11.0385 7.47629 10.6482L6.11004 9.28195V9.28159C6.06215 9.2287 6.06215 9.14794 6.11004 9.09468L9.0955 6.10922L9.09514 6.10958C9.14803 6.06134 9.22915 6.06134 9.28205 6.10958L10.6476 7.47684C11.0382 7.86959 11.5499 8.11831 12.1003 8.18263C12.6503 8.24696 13.2056 8.12331 13.6763 7.83135C15.2805 6.8422 17.0324 6.11562 18.8657 5.6796C19.4049 5.55309 19.8853 5.24754 20.2283 4.81298C20.5718 4.37878 20.758 3.84058 20.7562 3.28699V1.35646C20.7605 1.28534 20.8173 1.22853 20.8884 1.22388H25.1103C25.1818 1.22852 25.2382 1.28535 25.2425 1.35646V3.28727C25.2411 3.84119 25.4273 4.37906 25.7703 4.81362C26.1138 5.24782 26.5941 5.55337 27.133 5.67988C28.9667 6.11587 30.7188 6.84239 32.323 7.83163C32.7937 8.12324 33.3494 8.24689 33.8993 8.18256C34.4492 8.11823 34.961 7.86915 35.3516 7.47677L36.7175 6.11051C36.7429 6.08657 36.7765 6.07371 36.8112 6.07442C36.8458 6.07371 36.8794 6.08657 36.9044 6.11051L39.8903 9.09597V9.09562C39.9389 9.14851 39.9389 9.22963 39.8903 9.28252L38.523 10.648C38.1306 11.0386 37.8815 11.5504 37.8172 12.1004C37.7529 12.6504 37.8765 13.2061 38.1681 13.6767C39.1576 15.2805 39.8842 17.0324 40.3199 18.866C40.4464 19.4053 40.7519 19.8856 41.1865 20.2287C41.6211 20.5721 42.1589 20.758 42.7128 20.7565H44.6437C44.7151 20.7605 44.7719 20.8173 44.7759 20.8888V25.1107C44.7716 25.1821 44.7144 25.239 44.6433 25.2436L44.6465 25.244ZM28.7856 18.5431C28.3699 18.1571 27.8182 17.9516 27.2517 17.972C26.6849 17.9924 26.1496 18.2368 25.7626 18.6517L21.8555 22.8429L20.1616 21.1972C19.6137 20.6644 18.8236 20.4646 18.0885 20.6722C17.3534 20.8802 16.7848 21.4645 16.5972 22.2054C16.4099 22.9458 16.6315 23.7302 17.1793 24.2631L20.4424 27.4276H20.4421C20.7759 27.751 21.2058 27.9572 21.6672 28.0151C22.1282 28.073 22.5956 27.979 22.9987 27.7478L23.067 27.816L28.8942 21.5657C29.2805 21.1504 29.4864 20.5987 29.466 20.0318C29.4456 19.4647 29.2008 18.9293 28.7856 18.5431ZM27.9986 20.7323L22.6746 26.4412L22.5892 26.532H22.5888C22.2361 26.8933 21.6575 26.9012 21.2951 26.5495L18.0331 23.3854H18.0335C17.8602 23.216 17.7612 22.9848 17.7583 22.7421C17.7554 22.4998 17.8491 22.2661 18.0185 22.0928C18.3712 21.7318 18.9502 21.7251 19.3111 22.0781L21.8999 24.5883L26.659 19.4826C27.0045 19.1191 27.5781 19.1016 27.9454 19.4429C28.3124 19.7846 28.336 20.3581 27.9987 20.7291L27.9986 20.7323Z" fill="white"/>
</svg>
