<svg width="59" height="59" viewBox="0 0 59 59" fill="none" xmlns="http://www.w3.org/2000/svg">
<path fill-rule="evenodd" clip-rule="evenodd" d="M7.69789 22.0165L5.97861 19.3676L5.97819 19.3672C5.85146 19.1703 5.63331 19.0513 5.399 19.0521H5.362L2.20746 19.2192L4.19596 16.7676C4.35118 16.575 4.39243 16.3147 4.30398 16.0838L3.16984 13.1338L6.11982 14.268C6.35073 14.3564 6.61098 14.3148 6.80277 14.1591L9.25557 12.1702L9.09015 15.3251C9.0774 15.5721 9.19689 15.8069 9.40399 15.9421L12.055 17.6614L9.00348 18.477C8.76449 18.5404 8.5778 18.7266 8.51402 18.9652L7.69796 22.0168L7.69789 22.0165ZM8.63216 23.8761L9.74671 19.7083L13.9137 18.5937H13.9133C14.1761 18.5227 14.3725 18.3037 14.4151 18.035C14.4576 17.7658 14.3381 17.497 14.1101 17.3482L10.4922 14.9978L10.7201 10.6896C10.7346 10.4166 10.5866 10.1615 10.3433 10.0373C10.1001 9.91314 9.80668 9.94376 9.59406 10.1156L6.244 12.8346L2.21648 11.2867C1.96176 11.1885 1.67259 11.2493 1.47953 11.4424C1.28647 11.6354 1.22523 11.9242 1.32346 12.1789L2.87183 16.206L0.154919 19.5573C-0.0177281 19.7695 -0.0487759 20.0638 0.0753972 20.307C0.199567 20.5507 0.455995 20.6978 0.729003 20.683L5.03587 20.455L7.38449 24.0747C7.51164 24.2708 7.72979 24.3894 7.96368 24.3894C8.00025 24.3894 8.03639 24.3864 8.07211 24.3809C8.34215 24.338 8.56158 24.1402 8.63174 23.8761L8.63216 23.8761ZM53.6364 19.0529L53.636 19.0525C53.3889 19.0397 53.1537 19.1597 53.0198 19.3672L51.3005 22.016L50.4844 18.9645L50.484 18.9649C50.4202 18.7259 50.2335 18.5397 49.9945 18.4763L46.943 17.6607L49.5932 15.9414C49.8007 15.807 49.9206 15.5719 49.9078 15.3248L49.7407 12.1711L52.1944 14.16C52.3862 14.3157 52.6469 14.3574 52.8773 14.2685L55.8273 13.1343L54.6932 16.0843C54.6056 16.3152 54.6468 16.5755 54.802 16.7677L56.791 19.2205L53.6373 19.0534L53.6364 19.0529ZM56.1275 16.2059L57.6746 12.1788C57.7732 11.9241 57.712 11.6349 57.5189 11.4419C57.3254 11.2484 57.0367 11.1876 56.7816 11.2862L52.754 12.8346L49.4031 10.1173C49.1909 9.94631 48.8975 9.91569 48.6542 10.0399C48.4114 10.164 48.2639 10.4192 48.2779 10.6913L48.5092 14.9979L44.89 17.3452C44.662 17.494 44.5425 17.7628 44.585 18.0316C44.6276 18.3003 44.824 18.5193 45.0864 18.5908L49.253 19.7053L50.3675 23.8731V23.8727C50.4381 24.1368 50.6579 24.3345 50.928 24.3775C50.9637 24.3834 50.9998 24.386 51.036 24.386C51.2699 24.386 51.488 24.2678 51.6156 24.0713L53.9642 20.4516L58.2711 20.6795C58.5441 20.6948 58.8001 20.5473 58.9243 20.3036C59.0489 20.0604 59.0178 19.7665 58.8452 19.5543L56.1274 16.2025L56.1275 16.2059ZM32.0959 8.03004C31.9134 8.19503 31.8322 8.44466 31.8824 8.68535L32.5292 11.7199L29.8416 10.1677C29.6272 10.0453 29.3644 10.0453 29.1501 10.1677L26.4685 11.7199L27.1149 8.68752C27.165 8.44684 27.0838 8.19721 26.9018 8.03222L24.5956 5.95662L27.6766 5.63429C27.9228 5.6092 28.1367 5.45399 28.2371 5.22775L29.4988 2.39392L30.7588 5.23036C30.8587 5.45659 31.0722 5.61181 31.3184 5.6369L34.3994 5.95924L32.0932 8.03276L32.0959 8.03004ZM36.6775 5.21701C36.5933 4.95718 36.3637 4.77134 36.0915 4.7437L31.8586 4.30144L30.1299 0.41207C30.0202 0.161597 29.7723 0 29.4988 0C29.2254 0 28.9775 0.161597 28.8678 0.41207L27.1391 4.30144L22.9071 4.74412V4.7437C22.6349 4.77134 22.4044 4.95674 22.3194 5.21658C22.2343 5.47683 22.3104 5.76217 22.5137 5.94546L25.6779 8.79169L24.7905 12.9536H24.79C24.733 13.2206 24.8389 13.4966 25.0601 13.6569C25.2808 13.8172 25.5759 13.8325 25.8123 13.6956L29.4988 11.566L33.184 13.6956C33.2891 13.7568 33.4081 13.7892 33.5298 13.7887C33.7381 13.7887 33.9355 13.6943 34.0664 13.5323C34.1978 13.3703 34.2489 13.1577 34.2055 12.9535L33.3184 8.79169L36.4826 5.94545C36.6863 5.76301 36.7633 5.47725 36.6795 5.217L36.6775 5.21701ZM44.0245 50.4683C47.5498 46.6768 49.4528 41.6576 49.3273 36.4815C49.2015 31.3058 47.0573 26.3849 43.3526 22.7691C39.6478 19.1532 34.6758 17.129 29.4986 17.129C24.3214 17.129 19.3496 19.1532 15.6446 22.7691C11.9399 26.3854 9.7957 31.3064 9.66985 36.4815C9.54441 41.6572 11.4474 46.6764 14.9727 50.4683C15.6106 47.8067 16.968 45.3713 18.8965 43.4292C20.8254 41.4867 23.2506 40.1123 25.9079 39.4557C24.0053 38.3892 22.6757 36.5317 22.2789 34.3871C21.8821 32.2426 22.4596 30.0326 23.8545 28.3559C25.2493 26.6791 27.3173 25.7095 29.4984 25.7095C31.6795 25.7095 33.7474 26.6791 35.1423 28.3559C36.5372 30.0327 37.1146 32.2426 36.7179 34.3871C36.3211 36.5316 34.9914 38.3892 33.0888 39.4557C35.7462 40.1123 38.1714 41.4867 40.1003 43.4292C42.0288 45.3713 43.3862 47.8067 44.024 50.4683H44.0245ZM25.2901 37.273C24.1734 36.1567 23.5462 34.6428 23.5458 33.0639C23.5458 31.4854 24.1726 29.9711 25.2889 28.8548C26.4052 27.7385 27.9195 27.1112 29.4981 27.1112C31.077 27.1112 32.5909 27.7385 33.7072 28.8548C34.8234 29.9711 35.4503 31.4854 35.4503 33.0639C35.4503 34.6428 34.8226 36.1567 33.7063 37.273C32.5951 38.3982 31.0795 39.0318 29.4981 39.0318C27.9166 39.0318 26.401 38.3982 25.2903 37.273H25.2901ZM16.1456 51.6288V51.6284C16.6159 48.8749 17.9334 46.3367 19.9141 44.3669C22.4579 41.8286 25.9046 40.4032 29.4984 40.4032C33.0922 40.4032 36.5388 41.8286 39.0826 44.3669C41.0634 46.3367 42.3809 48.8749 42.8507 51.6284C39.1987 54.9543 34.4372 56.7972 29.4975 56.7972C24.5578 56.7972 19.7968 54.9542 16.1454 51.6284L16.1456 51.6288ZM14.4957 21.9613C10.5166 25.9404 8.28108 31.3368 8.28108 36.9638C8.28108 42.5911 10.5166 47.9873 14.4957 51.9663C18.4747 55.9453 23.8711 58.1809 29.4982 58.1809C35.1252 58.1809 40.5217 55.9454 44.5007 51.9663C48.4796 47.9872 50.7152 42.5909 50.7152 36.9638C50.7152 31.3365 48.4797 25.9403 44.5007 21.9613C41.8799 19.3048 38.6008 17.3916 34.9985 16.4178C31.3962 15.4435 27.5996 15.4435 23.9978 16.4178C20.3955 17.3916 17.1164 19.3048 14.4957 21.9613Z" fill="white"/>
</svg>
