<svg width="41" height="58" viewBox="0 0 41 58" fill="none" xmlns="http://www.w3.org/2000/svg">
<path id="Vector" d="M20.5005 0C15.4629 0 11.3461 4.036 11.3461 9.0415C11.3461 11.5442 12.3355 14.908 13.9292 17.7461C15.0741 19.7861 16.5516 21.6057 18.31 22.467C13.6179 22.9685 9.50653 25.0277 6.65498 27.7149C6.50553 27.8292 6.4105 28.0023 6.39344 28.1919C6.37591 28.3815 6.43772 28.5697 6.56365 28.7099C6.68958 28.85 6.86809 28.93 7.05444 28.9291C7.24125 28.9281 7.41884 28.8472 7.54339 28.7056C10.58 25.8443 15.2582 23.6893 20.501 23.6893C25.7438 23.6893 30.4217 25.8444 33.4587 28.7056C33.5832 28.8472 33.7608 28.9281 33.9476 28.9291C34.134 28.93 34.3125 28.85 34.4384 28.7099C34.5643 28.5697 34.6261 28.3815 34.6086 28.1919C34.5915 28.0023 34.4965 27.8292 34.3471 27.7149C31.4955 25.0277 27.3841 22.9685 22.692 22.467C24.4505 21.6057 25.9279 19.7859 27.0728 17.7461C28.6665 14.908 29.656 11.5442 29.656 9.0415C29.656 4.036 25.5391 0 20.5015 0H20.5005ZM20.5005 1.34875C24.8467 1.34875 28.3325 4.78956 28.3325 9.0415C28.3325 11.1679 27.4168 14.4329 25.9352 17.0716C24.454 19.7103 22.4485 21.6453 20.5005 21.6453C18.5525 21.6453 16.547 19.7104 15.0658 17.0716C13.5842 14.4329 12.6685 11.1679 12.6685 9.0415C12.6685 4.78956 16.1544 1.34875 20.5005 1.34875ZM0.640716 32.0571C0.283693 32.0684 5.86704e-07 32.3671 5.86704e-07 32.7318V50.9631C-0.000460777 51.3197 0.271233 51.6152 0.619955 51.6373C3.04026 51.7775 5.75577 52.1825 8.63827 52.9653C13.0005 54.1494 17.01 55.9381 20.1485 57.897C20.3635 58.0343 20.6365 58.0343 20.8515 57.897C23.99 55.938 27.9994 54.1494 32.3617 52.9653C35.2442 52.1825 37.9597 51.7774 40.38 51.6373C40.7288 51.6152 41.0005 51.3197 41 50.9631V32.7318C41 32.545 40.9248 32.3667 40.7915 32.2392C40.6587 32.1112 40.4797 32.0454 40.297 32.0571C37.7858 32.203 34.9804 32.6419 32.0107 33.4483C27.6705 34.6263 23.7091 36.3613 20.4999 38.317C17.2908 36.3613 13.3294 34.6262 8.98922 33.4483C6.01958 32.6419 3.21408 32.203 0.702853 32.0571C0.682095 32.0562 0.661338 32.0562 0.640581 32.0571L0.640716 32.0571ZM1.32294 33.4901C3.57024 33.6641 6.01959 34.0438 8.63828 34.7546C12.8603 35.9011 16.747 37.5923 19.8385 39.476V51.6158C19.8362 51.7964 19.905 51.9705 20.0291 52.0989C20.1531 52.2278 20.3229 52.2998 20.5 52.2998C20.6771 52.2998 20.8469 52.2279 20.971 52.0989C21.0951 51.9705 21.1638 51.7964 21.1615 51.6158V39.476C24.253 37.5923 28.1397 35.901 32.3618 34.7546C34.9804 34.0438 37.4298 33.6641 39.6771 33.4901V50.3509C37.3204 50.5263 34.7489 50.9352 32.0107 51.6789C27.6705 52.8574 23.7091 54.5915 20.5 56.5476C17.2909 54.5915 13.3294 52.8574 8.98925 51.6789C6.25106 50.9351 3.67949 50.5263 1.32284 50.3509L1.32294 33.4901Z" fill="#3A3B3F"/>
</svg>
