<svg width="58" height="58" viewBox="0 0 58 58" fill="none" xmlns="http://www.w3.org/2000/svg">
<g id="Group 2438">
<path id="Vector" d="M33.5645 0.00971781C33.4069 0.0426493 33.2615 0.13391 33.1642 0.262822L25.7508 9.70558C25.4356 10.0998 25.7729 10.8017 26.2773 10.8017H30.3207V24.2916C30.3207 24.6449 30.6416 24.9662 30.9949 24.9662C32.7807 24.9478 34.5891 24.9629 36.3862 24.9662C36.7391 24.9662 37.0599 24.6449 37.0604 24.2916V10.8017H41.1038C41.6086 10.8017 41.9455 10.0998 41.6303 9.70558L34.2174 0.262822C34.0678 0.0680562 33.8063 -0.0330845 33.5645 0.00971781ZM33.6911 1.75926L39.7354 9.45248H36.3867C36.0339 9.45248 35.7131 9.7738 35.7126 10.1271V23.6169C34.3666 23.6127 33.0211 23.6089 31.6691 23.6169V10.1271C31.6691 9.7738 31.3483 9.45248 30.995 9.45248H27.6463L33.6911 1.75926ZM14.695 2.70768C14.3859 2.76649 14.1417 3.06758 14.1474 3.38231V16.8721H10.1039C9.61372 16.8834 9.28629 17.5519 9.57749 17.9471L16.9908 27.3899C17.2425 27.7046 17.7925 27.7046 18.0437 27.3899L25.457 17.9471C25.7482 17.5519 25.4208 16.8834 24.9306 16.8721H20.8871V3.38231C20.8871 3.029 20.5663 2.70768 20.213 2.70768C18.2828 2.70721 16.361 2.72227 14.6952 2.70768H14.695ZM15.4952 4.05643C16.8473 4.06442 18.1927 4.06066 19.5387 4.05643V17.5463C19.5387 17.8996 19.8595 18.2209 20.2128 18.2209H23.5403L17.5171 25.8929L11.494 18.2209H14.8215C15.1743 18.2209 15.4951 17.8996 15.4956 17.5463L15.4952 4.05643ZM3.36387 29.0116C2.28468 29.0116 1.40489 29.466 0.857761 30.1708C0.310628 30.8755 0.0725899 31.7689 0.0151909 32.6792C-0.0986567 34.4824 0.430123 36.4037 1.51026 37.5271C4.85135 41.2046 8.30443 44.9155 11.5981 47.8129C13.3707 49.3603 15.1052 50.6949 16.6738 51.6701C18.2422 52.6453 19.6254 53.2932 20.8857 53.2932H37.7332C40.0045 53.6357 41.3359 54.3521 42.4716 55.19C43.6284 56.0439 44.6229 57.0859 46.1782 57.9299C46.4925 58.0955 46.929 57.9595 47.0942 57.6453C47.2598 57.3305 47.1243 56.894 46.81 56.7284C45.4566 55.994 44.542 55.031 43.2718 54.0939C42.0016 53.1568 40.3932 52.3085 37.8382 51.9439H20.8846C20.1235 51.9439 18.8392 51.4471 17.3676 50.5315C15.896 49.6165 14.2188 48.296 12.4816 46.7798C8.90662 43.4861 5.37597 39.9678 2.49916 36.6205C1.85182 35.9633 1.27085 34.2086 1.36209 32.7634C1.40772 32.0408 1.59214 31.4019 1.90969 30.9931C2.19291 30.6281 2.5829 30.4484 3.17329 30.4032C5.52416 32.5785 12.9144 38.5641 15.7249 40.984C15.9724 41.1877 15.9395 41.2022 16.2071 41.4186C16.281 42.1347 16.5322 42.8352 16.9039 43.45C17.2431 44.0108 17.682 44.5236 18.1906 44.9305C19.0059 45.5228 19.9519 45.8737 20.8843 45.8737H31.6669C32.0231 45.8803 32.3505 45.5557 32.3505 45.1991C32.3505 44.8425 32.0231 44.5198 31.6669 44.5245H20.8208C19.8709 44.6087 18.7193 43.8409 18.0621 42.7542C17.459 41.7564 17.371 40.6669 17.9355 39.8036H42.4499C45.5163 39.8036 47.9015 41.3231 50.1582 43.3658C52.4144 45.4085 54.4835 47.946 56.8766 49.7733C57.1528 50.032 57.6519 49.9878 57.8782 49.6843C58.104 49.3809 58.0038 48.8893 57.6773 48.6988C55.4719 47.0146 53.4258 44.4925 51.0643 42.3543C48.7027 40.2166 45.9675 38.4548 42.4504 38.4548H17.3893C17.2416 38.4863 17.1056 38.5695 17.0101 38.6867C16.7297 39.0151 16.534 39.3919 16.3995 39.7617C13.3519 37.1526 5.78201 31.0264 3.82616 29.1809C3.70008 29.0694 3.53119 29.0078 3.36277 29.012L3.36387 29.0116Z" fill="#3A3B3F"/>
</g>
</svg>
