<svg width="16" height="16" viewBox="0 0 16 16" fill="none" xmlns="http://www.w3.org/2000/svg">
<g id="Group 9841">
<path id="Vector" d="M11.5649 16.0001C9.50563 16.0001 6.63224 14.8959 3.86832 12.1316C0.327813 8.59095 -0.489779 4.87052 0.2494 2.9117C0.777912 1.5116 2.2517 1.05392 3.08323 0.905821C3.61026 0.812799 4.14159 1.08204 4.37512 1.56262L5.66598 4.21608C5.89771 4.69205 5.78594 5.27326 5.3942 5.62944L4.29641 6.62695C4.34016 6.98133 4.61239 8.07615 6.26818 9.73195C7.91773 11.3818 9.01077 11.658 9.37426 11.7031L10.3704 10.6064C10.7263 10.2148 11.3084 10.1025 11.7841 10.3341L14.4374 11.625C14.9183 11.8588 15.1883 12.3902 15.0942 12.9169C14.9461 13.7481 14.4886 15.2219 13.0888 15.7504C12.6591 15.9126 12.1444 15.9999 11.5656 15.9999L11.5649 16.0001Z" fill="#034C9F"/>
<path id="Vector_2" d="M15.5982 6.9657C15.4072 6.9657 15.2384 6.82877 15.2044 6.63439C14.6854 3.66034 12.3385 1.31345 9.36446 0.794505C9.14687 0.756255 9.00115 0.549075 9.03911 0.33149C9.07706 0.113894 9.28126 -0.0318197 9.50212 0.00613366C12.8075 0.583036 15.4155 3.19153 15.9928 6.4968C16.0307 6.7144 15.885 6.92156 15.6674 6.95982C15.6444 6.96369 15.6208 6.96562 15.5984 6.96562L15.5982 6.9657Z" fill="#034C9F"/>
<path id="Vector_3" d="M13.1184 7.49789C12.9276 7.49789 12.7587 7.36111 12.7246 7.16673C12.3781 5.18574 10.8141 3.62176 8.83283 3.275C8.61524 3.23675 8.46982 3.02957 8.50793 2.81198C8.54588 2.59453 8.75097 2.44733 8.9714 2.48707C11.2834 2.8916 13.1085 4.71707 13.5132 7.02883C13.5511 7.24643 13.4055 7.45359 13.1878 7.49185C13.1647 7.49586 13.1412 7.4978 13.1187 7.4978L13.1184 7.49789Z" fill="#034C9F"/>
</g>
</svg>
