<svg width="47" height="60" viewBox="0 0 47 60" fill="none" xmlns="http://www.w3.org/2000/svg">
<path id="Vector" d="M30.7162 30.0425H30.3039V25.0432C30.3039 24.9841 30.2827 24.9312 30.2695 24.8767C34.1609 22.5327 36.7786 18.2712 36.7786 13.3975C36.7786 6.01028 30.7829 0 23.4135 0C16.0441 0 10.0484 6.01028 10.0484 13.3975C10.0484 18.3094 12.7066 22.6001 16.6488 24.9322C16.6429 24.9699 16.626 25.0045 16.626 25.0432V30.0425H16.2879C7.30648 30.0425 0 38.2293 0 48.2931V59.2492C0 59.6644 0.339689 60 0.759937 60H46.2401C46.6603 60 47 59.6644 47 59.2492V48.2868C47.0011 38.226 39.6953 30.0429 30.7162 30.0429L30.7162 30.0425ZM25.8673 35.4098C25.6956 36.5727 24.6887 37.4717 23.4656 37.4717C22.2144 37.4717 21.1927 36.5329 21.0549 35.3334L23.3489 33.9469L25.8673 35.4098ZM21.9039 38.6534C22.384 38.8581 22.9113 38.9738 23.4656 38.9738C24.0205 38.9738 24.5472 38.8581 25.0268 38.6539L26.5494 51.3499C25.6729 53.3322 24.6639 55.3716 23.5001 57.4245C22.3125 55.3285 21.285 53.2468 20.3951 51.2252L21.9039 38.6534ZM27.7385 48.5021L26.4333 37.6214C26.7942 37.213 27.0655 36.7334 27.2308 36.2019L30.9107 38.3413C30.2446 41.1702 29.2404 44.6757 27.7385 48.5021ZM19.6861 36.1607C19.8494 36.7078 20.126 37.2026 20.497 37.6219L19.2092 48.3634C17.737 44.5878 16.7461 41.1305 16.0884 38.3352L19.6861 36.1607ZM21.1281 56.2329C11.6952 47.5811 10.2908 35.587 10.1017 33.1381C11.16 32.5805 12.2623 32.1632 13.3799 31.8967C13.6115 33.9564 15.0677 44.6842 21.1281 56.2327V56.2329ZM33.6215 31.8969C34.6135 32.1335 35.5944 32.487 36.5419 32.954C36.4195 34.8306 35.2928 46.6956 26.2277 55.5529C31.9946 44.2643 33.3952 33.9124 33.6215 31.8978V31.8969ZM32.1233 31.6278C32.0587 32.2289 31.8302 34.096 31.2563 36.8003L25.2654 33.3184C26.6862 33.0859 28.0757 32.5822 29.3534 31.7948L29.7614 31.5435H30.7164C31.1838 31.544 31.6538 31.5733 32.1233 31.6278ZM35.2133 12.4777C30.516 11.475 28.0968 8.87179 27.2743 7.79104C28.6028 6.91874 29.9584 5.87684 31.3187 4.62331C31.3303 4.61284 31.3346 4.5987 31.3452 4.58718C33.5297 6.57162 34.9738 9.35446 35.2133 12.4777ZM23.4147 1.50061C25.9218 1.50061 28.2456 2.29227 30.1624 3.63209C21.624 11.42 13.1365 10.5717 11.963 10.4073C13.2879 5.2935 17.9122 1.50061 23.415 1.50061H23.4147ZM11.5691 13.3971C11.5691 12.8834 11.6125 12.3808 11.6756 11.8844C11.9835 11.9342 12.7641 12.0373 13.9177 12.0373C16.5234 12.0373 20.9914 11.4986 25.9791 8.59267C26.9054 9.8629 29.6765 12.9379 35.2287 14.0129C34.9065 20.2861 29.7396 25.2941 23.4142 25.2941C16.8827 25.2936 11.5691 19.9566 11.5691 13.3971ZM23.4147 26.7946C25.3257 26.7946 27.1397 26.3841 28.7846 25.6569V30.3776L28.5493 30.5215C25.4338 32.4426 21.5568 32.452 18.4312 30.5472L18.1471 30.3744V25.7061C19.7645 26.4046 21.5441 26.7946 23.4147 26.7946ZM17.1715 31.5441L17.6341 31.8258C18.8524 32.5683 20.1714 33.0531 21.5217 33.2934L15.7427 36.7847C15.1714 34.0899 14.9435 32.2301 14.8789 31.6295C15.3505 31.5745 15.8216 31.5446 16.2906 31.5446L17.1715 31.5441ZM1.51987 48.2936C1.51987 41.7398 4.59783 36.771 8.65812 34.0064C9.08419 37.926 11.2071 50.0977 21.4323 58.4993H1.51947L1.51987 48.2936ZM45.4819 58.4999H25.1987C35.6396 49.9204 37.6321 37.4157 37.9968 33.7752C42.2279 36.4873 45.4822 41.551 45.4822 48.2889L45.4819 58.4999Z" fill="#3A3B3F"/>
</svg>
