<svg width="46" height="51" viewBox="0 0 46 51" fill="none" xmlns="http://www.w3.org/2000/svg">
<path d="M20.1065 0.000256898C25.0193 0.000256898 29.9523 1.88619 33.6408 5.17437C37.4066 8.5317 39.5074 12.9138 39.5719 17.535L45.8965 29.207C46.0172 29.4301 46.0333 29.6949 45.9397 29.9307C45.8461 30.1664 45.6527 30.3483 45.412 30.4277L39.5004 32.3764L39.4232 38.1259V38.1255C39.4095 39.5045 38.8417 40.82 37.8479 41.7755C36.8542 42.7315 35.5177 43.2473 34.1395 43.2072L28.1496 43.1201V49.6399C28.1481 50.1133 27.7637 50.4962 27.2903 50.4958H27.2796L3.2763 50.1874C2.80978 50.1817 2.43381 49.8031 2.43114 49.3365L2.34058 33.2845C2.2015 32.0385 1.99403 30.5896 1.77357 29.0563C0.917709 23.0928 -0.147572 15.6765 1.67576 11.8706C4.19249 4.98963 11.9354 0 20.1067 0L20.1065 0.000256898ZM3.4675 28.813C3.69217 30.3788 3.9046 31.8574 4.04635 33.1408V33.1412C4.04941 33.1706 4.05132 33.2004 4.05132 33.2303L4.1392 48.4871L26.4376 48.7737V42.2519C26.4372 42.0261 26.5266 41.8091 26.6867 41.6497C26.8468 41.49 27.0639 41.4014 27.29 41.4025H27.3023L34.1686 41.4988C34.1732 41.4988 34.1778 41.4973 34.1824 41.4977H34.1828C35.1032 41.5256 35.9961 41.1817 36.6598 40.5436C37.3239 39.9055 37.7029 39.0271 37.7113 38.1063L37.7969 31.7435V31.7431C37.8018 31.3778 38.038 31.0561 38.3853 30.9419L43.9045 29.1231L37.9658 18.1632C37.8977 18.0383 37.8622 17.898 37.8622 17.7555C37.8622 13.5484 35.9587 9.53425 32.5024 6.45324C29.1228 3.44051 24.6047 1.71274 20.1065 1.71274C16.4297 1.7349 12.8343 2.79709 9.73639 4.77702C6.65528 6.7501 4.35893 9.49151 3.27047 12.4966L3.27009 12.4962C3.25977 12.5249 3.24792 12.5532 3.23455 12.5803C1.61457 15.9002 2.64233 23.06 3.46839 28.8133L3.4675 28.813Z" fill="white"/>
<path d="M9.80774 15.152C10.1298 14.8058 10.6712 14.7863 11.0174 15.108C11.3636 15.437 11.3827 15.9826 11.0609 16.3353L9.65264 17.8666H28.0943C28.3728 16.8484 29.1297 16.03 30.1231 15.6723C31.1161 15.3151 32.2211 15.4633 33.0846 16.0704C33.9485 16.6776 34.4624 17.6667 34.4624 18.7224C34.4624 19.7781 33.9485 20.7673 33.0846 21.3744C32.2211 21.9816 31.1161 22.1298 30.1231 21.7726C29.1297 21.4149 28.3728 20.5966 28.0943 19.5782H9.65264L11.0609 21.0749C11.2925 21.3224 11.3544 21.6839 11.218 21.9941C11.0816 22.3044 10.7736 22.5038 10.4347 22.5004C10.1967 22.5 9.96935 22.4003 9.80772 22.2253L7.06094 19.2715C6.75527 18.9429 6.75527 18.4339 7.06094 18.1053L9.80774 15.152ZM31.2337 20.231C31.6429 20.231 32.0353 20.0682 32.3249 19.779C32.6141 19.4898 32.7769 19.097 32.7769 18.6878C32.7769 18.2786 32.6141 17.8858 32.3249 17.5966C32.0353 17.3074 31.6428 17.1446 31.2337 17.1446C30.8245 17.1446 30.4317 17.3074 30.1425 17.5966C29.8528 17.8858 29.6905 18.2786 29.6905 18.6878C29.6908 19.097 29.8536 19.489 30.1428 19.7786C30.4321 20.0678 30.8245 20.2306 31.2337 20.231Z" fill="white"/>
<path d="M20.6611 14.7235C19.8282 14.7235 19.0296 14.3927 18.4404 13.8039C17.8517 13.2151 17.5208 12.4161 17.5208 11.5832C17.5208 10.7504 17.8517 9.95172 18.4408 9.36298C19.0296 8.77381 19.8282 8.44293 20.6611 8.44293C21.494 8.44331 22.2926 8.7742 22.8817 9.36298C23.4705 9.95177 23.8014 10.7508 23.8014 11.5836C23.8002 12.4162 23.4694 13.2144 22.8806 13.8028C22.2918 14.3916 21.4936 14.7228 20.6611 14.7235ZM20.6611 10.155C20.2821 10.155 19.9187 10.3055 19.6509 10.5734C19.383 10.8412 19.2325 11.2046 19.2325 11.5836C19.2325 11.9622 19.383 12.3256 19.6509 12.5934C19.9187 12.8616 20.2821 13.0118 20.6611 13.0118C21.0401 13.0118 21.4035 12.8616 21.6713 12.5934C21.9391 12.3256 22.0897 11.9622 22.0897 11.5836C22.0893 11.2046 21.9384 10.8416 21.6705 10.5738C21.4031 10.3059 21.0397 10.1554 20.6611 10.155Z" fill="white"/>
<path d="M17.9487 24.008C18.275 23.666 18.8168 23.6534 19.1587 23.9797L20.661 25.4132L22.1634 23.9797C22.5057 23.6557 23.0456 23.6694 23.3711 24.0102C23.6963 24.3514 23.6848 24.8913 23.3452 25.218L21.9009 26.5958L23.3452 27.9736V27.974C23.5106 28.1303 23.6065 28.3462 23.6122 28.5739C23.6184 28.8012 23.5332 29.0217 23.3761 29.1863C23.2191 29.351 23.0028 29.4462 22.7751 29.4511C22.5478 29.4561 22.3277 29.3701 22.1634 29.2123L20.6611 27.7792L19.1588 29.2127C18.8164 29.5363 18.2765 29.5226 17.951 29.1818C17.6258 28.8406 17.6373 28.3007 17.977 27.974L19.4213 26.5962L17.977 25.2184V25.218C17.8127 25.0613 17.7175 24.8459 17.7122 24.6189C17.7068 24.3919 17.792 24.1722 17.9487 24.008Z" fill="white"/>
</svg>
