<svg width="55" height="59" viewBox="0 0 55 59" fill="none" xmlns="http://www.w3.org/2000/svg">
<g id="Group 2439">
<path id="Vector" d="M12.5949 33.8951C11.8354 33.8951 11.8354 32.75 12.5949 32.75H14.6396C15.3874 32.75 15.3874 33.8951 14.6396 33.8951H12.5949ZM12.5949 31.3713C11.8354 31.3713 11.8354 30.2263 12.5949 30.2263H18.1447C18.9042 30.2263 18.9042 31.3713 18.1447 31.3713H12.5949ZM12.5949 14.8852C11.8354 14.8852 11.8354 13.7401 12.5949 13.7401H14.6396C15.3874 13.7401 15.3874 14.8852 14.6396 14.8852H12.5949ZM16.3688 14.8852C15.6093 14.8852 15.6093 13.7401 16.3688 13.7401H18.1447C18.9042 13.7401 18.9042 14.8852 18.1447 14.8852H16.3688ZM12.5949 22.8419C11.8354 22.8419 11.8354 21.6968 12.5949 21.6968H16.2052C16.9647 21.6968 16.9647 22.8419 16.2052 22.8419H12.5949ZM12.5949 12.3615C11.8354 12.3615 11.8354 11.2164 12.5949 11.2164H18.1447C18.9042 11.2164 18.9042 12.3615 18.1447 12.3615H12.5949ZM6.16878 19.6288H8.96127C9.82588 19.6288 10.5386 20.3415 10.5386 21.2062V23.9987C10.5386 24.8633 9.8376 25.576 8.96127 25.576H6.16878C5.30417 25.576 4.59142 24.875 4.59142 23.9987V21.2062C4.59142 20.3299 5.30414 19.6288 6.16878 19.6288ZM8.96127 20.7739H6.16878C5.9351 20.7739 5.73648 20.9725 5.73648 21.2062V23.9987C5.73648 24.2323 5.9351 24.431 6.16878 24.431H8.96127C9.19495 24.431 9.39357 24.244 9.39357 23.9987V21.2062C9.38189 20.9725 9.19495 20.7739 8.96127 20.7739ZM6.16878 10.3519H8.96127C9.82588 10.3519 10.5386 11.0529 10.5386 11.9293V14.7217C10.5386 15.5864 9.8376 16.2991 8.96127 16.2991H6.16878C5.30417 16.2991 4.59142 15.5864 4.59142 14.7217V11.9176C4.59142 11.053 5.30414 10.3519 6.16878 10.3519ZM8.96127 11.4969H6.16878C5.9351 11.4969 5.73648 11.6839 5.73648 11.9292V14.7217C5.73648 14.9554 5.9351 15.154 6.16878 15.154H8.96127C9.19495 15.154 9.39357 14.9554 9.39357 14.7217V11.9176C9.38189 11.6839 9.19495 11.4969 8.96127 11.4969ZM6.16878 28.9061H8.96127C9.82588 28.9061 10.5386 29.6071 10.5386 30.4834V33.2759C10.5386 34.1405 9.8376 34.8533 8.96127 34.8533H6.16878C5.30417 34.8533 4.59142 34.1405 4.59142 33.2759V30.4834C4.59142 29.6188 5.30414 28.9061 6.16878 28.9061ZM8.96127 30.0511H6.16878C5.9351 30.0511 5.73648 30.238 5.73648 30.4834V33.2759C5.73648 33.5096 5.9351 33.7082 6.16878 33.7082H8.96127C9.19495 33.7082 9.39357 33.5096 9.39357 33.2759V30.4834C9.38189 30.2497 9.19495 30.0511 8.96127 30.0511ZM21.3112 28.4387L26.3352 28.4036L26.195 7.25569C26.1717 3.93752 21.1476 3.97256 21.171 7.29074L21.3112 28.4387ZM26.0666 29.5487L21.5916 29.5838L23.8583 34.0704L26.0666 29.5487ZM27.3401 7.2556L27.4803 29.1278C27.4803 29.2213 27.457 29.3031 27.4219 29.3849L24.3841 35.6124C24.1854 36.033 23.5662 36.068 23.3442 35.589L20.2362 29.4316C20.1895 29.3381 20.1661 29.2446 20.1778 29.1512L20.0376 7.30243C20.0026 2.46533 27.305 2.41854 27.34 7.2557L27.3401 7.2556ZM31.079 46.6886C30.9037 46.4199 30.9738 46.0694 31.2425 45.8941C31.4996 45.7189 31.8618 45.789 32.037 46.0577C32.8549 47.2728 33.848 48.1959 35.0281 48.8034C36.1966 49.4109 37.5518 49.7264 39.0941 49.7498L43.0666 49.7381C44.2467 49.7381 45.2398 49.3175 46.0811 48.4879C46.9223 47.6584 47.3663 46.6769 47.378 45.4969C47.4014 44.1064 47.4131 43.2652 47.4131 42.4357C47.4248 41.5945 47.4248 40.7532 47.4481 39.3979C47.4365 39.0824 47.6585 38.8136 47.9739 38.7903L52.5656 38.5566C53.5354 38.5099 54.1663 37.435 53.6639 36.6054C52.1567 34.1167 49.7265 30.4831 48.7099 28.3215C48.6749 28.2397 48.6515 28.1579 48.6515 28.0644C49.002 17.2806 44.1181 9.37023 32.6792 9.37023H32.1417V13.3778H34.4902C34.8056 13.3778 35.0627 13.6349 35.0627 13.9504V15.738C36.0558 15.9716 37.0022 16.3689 37.8668 16.8946L39.1404 15.6328C39.3623 15.4108 39.7246 15.4108 39.9465 15.6328L42.3884 18.0747C42.6104 18.2967 42.6104 18.6589 42.3884 18.8809L41.1266 20.1427C41.6524 21.0073 42.0497 21.9537 42.2833 22.9469H44.0709C44.3864 22.9469 44.6434 23.2039 44.6434 23.5194V26.9778C44.6434 27.2933 44.3864 27.5503 44.0709 27.5503H42.2833C42.0496 28.5434 41.6524 29.4898 41.1266 30.3544L42.3884 31.6162C42.6104 31.8382 42.6104 32.2004 42.3884 32.4224L39.9465 34.8643C39.7246 35.0863 39.3623 35.0863 39.1404 34.8643L37.8668 33.6025C37.0022 34.1283 36.0558 34.5255 35.0627 34.7592V36.5468C35.0627 36.8623 34.8056 37.1193 34.4902 37.1193H32.1417V39.5964C32.1417 39.9118 31.8847 40.1689 31.5692 40.1689H18.0859C18.5532 40.9751 18.9271 41.8046 19.1374 42.8211C19.4179 44.1998 19.3594 45.8822 18.7986 48.2308C17.899 52.0164 17.677 53.5586 16.8123 57.239H33.2632L34.0577 53.9209C34.3966 52.4838 35.2845 51.2803 36.4763 50.5325C34.2214 49.9951 32.422 48.6865 31.0784 46.6885L31.079 46.6886ZM7.07988 7.65298H1.14453V39.0475H30.9965V1.14526H7.65225V7.08062C7.65225 7.39608 7.39521 7.65313 7.07973 7.65313L7.07988 7.65298ZM1.95062 6.50793H6.50731V1.95125L1.95062 6.50793ZM7.07988 0H31.581C31.8965 0 32.1536 0.25704 32.1536 0.572513V8.23714L33.5206 8.24882C44.6324 8.61102 49.8198 16.3808 49.8198 26.9783C49.8198 27.2704 49.8081 27.5975 49.8081 27.9597C50.4858 29.3734 51.7009 31.2896 52.916 33.2175C53.5236 34.1873 54.1428 35.1687 54.657 36.0216C55.6034 37.5756 54.4817 39.6203 52.6356 39.702L48.593 39.9007L48.5229 45.5206C48.4995 46.9927 47.9387 48.2779 46.8872 49.3062C45.8357 50.3345 44.5388 50.8836 43.0665 50.8836H39.3745C37.3649 50.8836 35.6356 52.2622 35.1683 54.2135L34.2686 57.9757C34.2102 58.2328 33.9765 58.408 33.7195 58.408H16.0882C15.726 58.408 15.4222 58.0692 15.5507 57.6486C16.0298 55.6623 16.3219 54.2602 16.6139 52.8582C16.906 51.4795 17.1981 50.0891 17.7006 47.986C18.2147 45.8245 18.2614 44.294 18.016 43.0671C17.794 41.9571 17.3267 41.0808 16.7542 40.1929H0.572513C0.25705 40.1929 0 39.9358 0 39.6204V7.0807C0 6.91713 0.0701027 6.77691 0.175255 6.67177L6.67144 0.163834L6.69481 0.140466L6.74154 0.105415L6.82333 0.0586795C6.83501 0.0469951 6.8467 0.0469951 6.85838 0.0469951L6.9168 0.0236274C6.92848 0.0236274 6.92848 0.0236274 6.94017 0.0119429H6.95185C6.96354 0.0119429 6.96354 0.011943 6.97522 0.00025856H7.02196H7.08037L7.07988 0ZM32.1419 14.5345V18.9743C35.8691 18.6121 39.0938 21.5331 39.0938 25.2719C39.0938 29.0107 35.869 31.9434 32.1419 31.5811V36.0093H33.9178V34.3502C33.9061 34.0698 34.0931 33.8128 34.3852 33.7544C34.9694 33.6492 35.5302 33.4739 36.0676 33.252C36.6051 33.03 37.1075 32.7612 37.5866 32.4341C37.8086 32.2588 38.1357 32.2705 38.346 32.4808L39.5378 33.6609L41.1735 32.0252L39.9934 30.8451C39.8064 30.6582 39.7714 30.3427 39.9233 30.1207C40.2504 29.6417 40.5308 29.1159 40.7645 28.5784C40.9748 28.0526 41.1501 27.5035 41.2552 26.931C41.2903 26.6506 41.5356 26.4286 41.8277 26.4286H43.4986V24.1152H41.8161C41.5474 24.1152 41.302 23.9282 41.2553 23.6478C41.1384 23.0636 40.9749 22.4911 40.7529 21.9537C40.5309 21.4163 40.2505 20.9138 39.935 20.4348C39.7598 20.2128 39.7714 19.8856 39.9817 19.6753L41.1618 18.4952L39.5261 16.8595L38.3344 18.0396C38.1475 18.2266 37.832 18.2616 37.61 18.1097C37.1193 17.7826 36.6052 17.5022 36.056 17.2685C35.5303 17.0465 34.9812 16.8829 34.4086 16.7661C34.1282 16.731 33.9062 16.4857 33.9062 16.1936V14.5111H32.1419L32.1419 14.5345ZM32.1419 20.1077V30.4246C35.2264 30.7868 37.9487 28.3798 37.9487 25.272C37.9604 22.1641 35.2264 19.7456 32.1419 20.1077Z" fill="#3A3B3F"/>
</g>
</svg>
