<svg width="54" height="54" viewBox="0 0 54 54" fill="none" xmlns="http://www.w3.org/2000/svg">
<path d="M30.9759 0.00896834C30.8304 0.0393601 30.6963 0.123582 30.6064 0.242553L23.7648 8.95705C23.4739 9.32088 23.7852 9.96866 24.2507 9.96866H27.9823V22.4181C27.9823 22.7442 28.2784 23.0407 28.6044 23.0407C30.2525 23.0238 31.9215 23.0377 33.58 23.0407C33.9056 23.0407 34.2017 22.7442 34.2022 22.4181V9.96866H37.9338C38.3996 9.96866 38.7105 9.32089 38.4196 8.95705L31.5785 0.242553C31.4404 0.0628075 31.1991 -0.0305329 30.9759 0.00896834ZM31.0927 1.62358L36.6709 8.72347H33.5805C33.2548 8.72347 32.9587 9.02001 32.9583 9.34606V21.7955C31.7161 21.7916 30.4744 21.7881 29.2267 21.7955V9.34606C29.2267 9.02001 28.9306 8.72347 28.6045 8.72347H25.5141L31.0927 1.62358ZM13.5617 2.49886C13.2764 2.55313 13.0511 2.83099 13.0563 3.12145V15.5709H9.32467C8.87228 15.5813 8.57009 16.1983 8.83884 16.563L15.6804 25.2775C15.9127 25.5679 16.4202 25.5679 16.6521 25.2775L23.4937 16.563C23.7624 16.1983 23.4602 15.5813 23.0078 15.5709H19.2762V3.12145C19.2762 2.79539 18.9801 2.49886 18.6541 2.49886C16.8727 2.49842 15.0992 2.51232 13.5618 2.49886H13.5617ZM14.3002 3.74358C15.548 3.75096 16.7896 3.74749 18.0318 3.74358V16.193C18.0318 16.5191 18.3279 16.8156 18.6539 16.8156H21.7248L16.1662 23.8959L10.6075 16.8156H13.6784C14.004 16.8156 14.3001 16.5191 14.3005 16.193L14.3002 3.74358ZM3.10444 26.7741C2.10847 26.7741 1.29654 27.1935 0.791607 27.8439C0.286671 28.4943 0.0669915 29.3188 0.0140194 30.1588C-0.0910479 31.823 0.39695 33.5961 1.39378 34.6329C4.47719 38.0267 7.66397 41.4515 10.7036 44.1254C12.3395 45.5534 13.9403 46.7851 15.3878 47.6851C16.8353 48.5851 18.1118 49.183 19.2749 49.183H34.8231C36.9192 49.4991 38.1479 50.1603 39.196 50.9335C40.2636 51.7215 41.1814 52.6832 42.6168 53.4621C42.9068 53.6149 43.3097 53.4895 43.4621 53.1994C43.6149 52.909 43.4899 52.5061 43.1999 52.3533C41.9508 51.6755 41.1068 50.7868 39.9345 49.9219C38.7622 49.0571 37.2779 48.2743 34.9199 47.9378H19.2739C18.5715 47.9378 17.3862 47.4793 16.0281 46.6344C14.6701 45.7899 13.1222 44.5713 11.519 43.1719C8.2197 40.1323 4.96135 36.8853 2.30641 33.7962C1.709 33.1897 1.17284 31.5703 1.25704 30.2366C1.29916 29.5697 1.46935 28.9801 1.76241 28.6028C2.02378 28.2659 2.38369 28.1001 2.92855 28.0584C5.09812 30.0659 11.9184 35.5899 14.5122 37.8231C14.7405 38.0111 14.7101 38.0246 14.9572 38.2243C15.0254 38.8851 15.2572 39.5316 15.6002 40.099C15.9132 40.6165 16.3183 41.0897 16.7877 41.4653C17.5401 42.0119 18.4132 42.3358 19.2737 42.3358H29.2247C29.5533 42.3419 29.8555 42.0423 29.8555 41.7132C29.8555 41.3841 29.5533 41.0863 29.2247 41.0906H19.215C18.3384 41.1683 17.2756 40.4598 16.6691 39.4569C16.1125 38.536 16.0313 37.5305 16.5523 36.7338H39.176C42.0059 36.7338 44.2071 38.1361 46.2898 40.0213C48.372 41.9064 50.2815 44.2483 52.4901 45.9346C52.7449 46.1733 53.2056 46.1325 53.4144 45.8525C53.6228 45.5725 53.5303 45.1188 53.229 44.9429C51.1937 43.3887 49.3055 41.0611 47.126 39.0878C44.9465 37.1149 42.4223 35.489 39.1765 35.489H16.0482C15.9118 35.5181 15.7864 35.5949 15.6982 35.703C15.4395 36.0061 15.2589 36.3538 15.1347 36.6951C12.3222 34.2872 5.33608 28.6336 3.53107 26.9304C3.41471 26.8275 3.25886 26.7706 3.10342 26.7745L3.10444 26.7741Z" fill="white"/>
</svg>
