<svg width="20" height="18" viewBox="0 0 20 18" fill="none" xmlns="http://www.w3.org/2000/svg">
<g id="Group 9800">
<path id="Vector" d="M9.99879 0C9.77167 0 9.59419 0.17828 9.59419 0.406051L9.59293 12.1175L7.14995 9.67453C6.98974 9.51432 6.73622 9.51432 6.57538 9.67453C6.41453 9.83475 6.41453 10.087 6.57538 10.2479L9.71184 13.3831C9.78833 13.4596 9.89137 13.5028 9.99819 13.5028C10.105 13.5028 10.2079 13.4604 10.2845 13.3831L13.4222 10.2454C13.5831 10.0845 13.5831 9.83288 13.4222 9.67204C13.2614 9.5112 13.0098 9.5112 12.8489 9.67204L10.4034 12.1175V0.406051C10.4034 0.178923 10.2245 0 9.99738 0H9.99879ZM0.406051 8.88825C0.178292 8.88825 0 9.06574 0 9.29285V17.4605C0 17.6876 0.17828 17.8651 0.406051 17.8651H19.594C19.8217 17.8651 20 17.6876 20 17.4605V9.29285C20 9.06572 19.8217 8.88825 19.594 8.88825C19.3662 8.88825 19.1879 9.06574 19.1879 9.29285V17.0544H0.811861V9.29285C0.811861 9.06572 0.633581 8.88825 0.40581 8.88825H0.406051Z" fill="white"/>
</g>
</svg>
