<svg width="17" height="21" viewBox="0 0 17 21" fill="none" xmlns="http://www.w3.org/2000/svg">
<path d="M16.3752 5.24443L11.7282 0.575303C11.352 0.199137 10.8652 0 10.334 0H1.96944C1.43832 0 0.951449 0.199121 0.575303 0.575303C0.199137 0.951469 0 1.43832 0 1.96944V19.0306C0 20.1149 0.885063 21 1.96944 21H15.0032C16.0875 21 16.9726 20.1149 16.9726 19.0306V6.63857C16.9726 6.10744 16.7514 5.62057 16.3753 5.24443H16.3752ZM11.0201 2.32354L14.6491 5.95262H11.3964C11.1751 5.95262 11.0202 5.77557 11.0202 5.57646L11.0201 2.32354ZM15.2466 19.0527C15.2466 19.1855 15.1359 19.2961 15.0032 19.2961H1.96947C1.83673 19.2961 1.72605 19.1855 1.72605 19.0527V1.96948C1.72605 1.88103 1.77035 1.81451 1.79243 1.79243C1.83673 1.74813 1.88087 1.72606 1.96947 1.72606H9.29402V5.57647C9.29402 6.74928 10.2455 7.67864 11.3962 7.67864H15.2244L15.2246 19.0527L15.2466 19.0527Z" fill="white"/>
<path d="M9.13847 12.3919C8.91712 12.1485 8.67369 11.8166 8.45252 11.4182C8.93935 9.75856 9.00574 8.60783 8.6075 8.03253C8.40838 7.72274 8.07637 7.56775 7.70019 7.56775C7.25766 7.56775 6.90356 7.76687 6.74874 8.16526C6.41687 8.93984 6.92579 10.356 7.52332 11.5066C7.36834 12.0378 7.14715 12.6351 6.88167 13.277C6.74892 13.631 6.57188 13.9851 6.39484 14.317C5.06705 14.8259 3.60668 15.6005 3.42965 16.5299C3.36328 16.8839 3.47395 17.2158 3.78374 17.4593C3.96079 17.6142 4.15991 17.6806 4.38126 17.6806C4.4697 17.6806 4.5583 17.6585 4.64675 17.6363C5.46547 17.4372 6.32848 16.2201 6.99234 15.0252C7.3685 14.8925 7.81106 14.7375 8.27579 14.6047C8.82901 14.4498 9.33793 14.317 9.78046 14.2286C10.5992 14.8925 11.3294 15.2466 11.949 15.2466C12.3915 15.2686 12.7899 15.0916 13.0997 14.7597C13.5866 14.2729 13.3875 13.8303 13.3211 13.6976C12.967 13.1001 11.7721 12.9674 10.0239 13.2994C9.75809 13.0336 9.44832 12.7238 9.13852 12.3919H9.13847ZM4.44721 16.7955C4.38084 16.8175 4.35877 16.7955 4.29224 16.6848C4.33654 16.4635 4.75702 16.0432 5.66417 15.6005C5.19971 16.2645 4.75717 16.7291 4.44721 16.7955ZM7.52324 8.5194C7.54532 8.4751 7.54531 8.45302 7.67822 8.45302C7.81096 8.45302 7.85527 8.49732 7.87734 8.54147C8.03231 8.76282 8.03231 9.3381 7.85527 10.2454C7.56739 9.49292 7.39032 8.80699 7.52324 8.5194ZM8.05425 13.7639C7.89927 13.8082 7.72238 13.8523 7.54533 13.9188C7.58963 13.8082 7.63378 13.6975 7.67808 13.609C7.83305 13.2108 7.98787 12.8345 8.09856 12.4805C8.23131 12.6797 8.38628 12.8567 8.4968 12.9894C8.67384 13.1665 8.85089 13.3435 9.00571 13.5206C8.71815 13.5868 8.38626 13.6753 8.05425 13.7639ZM12.5242 14.14C12.4135 14.3392 12.2365 14.3614 11.9931 14.3614C11.7276 14.3614 11.3735 14.2286 10.9973 14.0073C12.0817 13.8966 12.6349 13.9409 12.5243 14.14L12.5242 14.14Z" fill="white"/>
</svg>
