<svg width="11" height="15" viewBox="0 0 11 15" fill="none" xmlns="http://www.w3.org/2000/svg">
<path d="M6.24825 0.826053L10.6305 5.1333C11.0343 5.53024 11.0343 6.19173 10.6305 6.58867C10.2266 6.98561 9.55361 6.98561 9.14976 6.58867L6.5474 4.04541L6.5474 13.4537C6.5474 14.027 6.08378 14.4827 5.50048 14.4827C4.91719 14.4827 4.45356 14.027 4.45356 13.4537L4.45356 4.04541L1.86614 6.58857C1.46229 6.98551 0.789276 6.98551 0.385427 6.58857C0.176043 6.38276 0.0712891 6.1181 0.0712891 5.85354C0.0712891 5.58899 0.176035 5.32432 0.385427 5.11852L4.75269 0.825975C4.94716 0.634837 5.21631 0.517212 5.50051 0.517212C5.78471 0.517212 6.05387 0.620165 6.24833 0.825975L6.24825 0.826053Z" fill="#3A3B3F"/>
</svg>
