<svg width="17" height="11" viewBox="0 0 17 11" fill="none" xmlns="http://www.w3.org/2000/svg">
<path d="M12.3867 3.15264V1.03474C12.3867 0.366348 11.8954 -0.12493 11.3881 0.0280962L5.03066 1.97291H2.88457C2.26674 1.96348 1.66237 2.15464 1.16236 2.51755C0.66221 2.88047 0.29307 3.3957 0.110433 3.98606C-0.110795 4.75289 0.00352576 5.57751 0.424951 6.25536C0.846377 6.93307 1.53541 7.40047 2.32097 7.54135V10.2269C2.32097 10.3872 2.3846 10.5408 2.49784 10.654C2.61108 10.7673 2.76464 10.8309 2.92493 10.8309H3.73016C3.89032 10.8309 4.044 10.7673 4.15725 10.654C4.27049 10.5408 4.33412 10.3872 4.33412 10.2269V7.60982H4.7368L11.3483 9.55464C11.8797 9.71169 12.3871 9.21639 12.3871 8.54799L12.387 6.06368C12.612 6.00976 12.8129 5.88304 12.9585 5.70321C13.1041 5.52337 13.1863 5.30052 13.1924 5.06919V4.1472C13.1863 3.91586 13.1041 3.69302 12.9585 3.51318C12.8129 3.33334 12.612 3.20662 12.387 3.15271L12.3867 3.15264Z" fill="white"/>
<path d="M14.3114 7.04206C14.1737 7.04233 14.0455 6.9725 13.9714 6.85669C13.8971 6.74089 13.8871 6.59516 13.945 6.47033C14.5198 5.21551 14.4119 3.75372 13.659 2.59706C13.5378 2.4102 13.5911 2.16055 13.7778 2.03934C13.9646 1.91815 14.2143 1.97139 14.3355 2.15825C15.2381 3.54614 15.3672 5.29952 14.6777 6.80459C14.6128 6.94884 14.4695 7.04172 14.3114 7.04213L14.3114 7.04206Z" fill="white"/>
<path d="M14.8026 8.415C14.6471 8.41554 14.5052 8.32643 14.438 8.18622C14.3709 8.04588 14.3906 7.87952 14.4886 7.75872C15.2697 6.79536 15.6675 5.57746 15.6058 4.33879C15.5442 3.10013 15.0273 1.92783 14.1544 1.04667C14.0277 0.885972 14.0417 0.655853 14.1869 0.511731C14.3321 0.367482 14.5623 0.355213 14.7221 0.483016C15.736 1.50302 16.3378 2.86123 16.4121 4.29762C16.4865 5.73391 16.028 7.147 15.1248 8.26615C15.0462 8.36308 14.9273 8.41808 14.8026 8.41512L14.8026 8.415Z" fill="white"/>
</svg>
