<svg width="112" height="16" viewBox="0 0 112 16" fill="none" xmlns="http://www.w3.org/2000/svg">
<path d="M31.232 11.332H28.1L27.584 13H26.192L29.072 4.6H30.26L33.14 13H31.748L31.232 11.332ZM30.896 10.264L29.672 6.292L28.436 10.264H30.896ZM34.0079 8.536C34.0079 7.792 33.9919 7.28 33.9599 7H35.0639C35.1039 7.296 35.1239 7.648 35.1239 8.056H35.1599C35.3199 7.696 35.5799 7.412 35.9399 7.204C36.3079 6.988 36.7159 6.88 37.1639 6.88C38.5719 6.88 39.2759 7.792 39.2759 9.616V13H38.0879V9.604C38.0879 9.004 37.9879 8.56 37.7879 8.272C37.5879 7.984 37.2799 7.84 36.8639 7.84C36.3759 7.84 35.9759 8.016 35.6639 8.368C35.3519 8.72 35.1959 9.168 35.1959 9.712V13H34.0079V8.536ZM40.6525 8.536C40.6525 7.792 40.6365 7.28 40.6045 7H41.7085C41.7485 7.296 41.7685 7.648 41.7685 8.056H41.8045C41.9645 7.696 42.2245 7.412 42.5845 7.204C42.9525 6.988 43.3605 6.88 43.8085 6.88C45.2165 6.88 45.9205 7.792 45.9205 9.616V13H44.7325V9.604C44.7325 9.004 44.6325 8.56 44.4325 8.272C44.2325 7.984 43.9245 7.84 43.5085 7.84C43.0205 7.84 42.6205 8.016 42.3085 8.368C41.9965 8.72 41.8405 9.168 41.8405 9.712V13H40.6525V8.536ZM50.009 13.12C49.089 13.12 48.365 12.844 47.837 12.292C47.309 11.732 47.045 10.968 47.045 10C47.045 9.032 47.309 8.272 47.837 7.72C48.365 7.16 49.089 6.88 50.009 6.88C50.929 6.88 51.653 7.16 52.181 7.72C52.717 8.272 52.985 9.032 52.985 10C52.985 10.968 52.717 11.732 52.181 12.292C51.653 12.844 50.929 13.12 50.009 13.12ZM50.009 12.22C50.561 12.22 50.997 12.024 51.317 11.632C51.637 11.232 51.797 10.688 51.797 10C51.797 9.312 51.637 8.772 51.317 8.38C50.997 7.98 50.561 7.78 50.009 7.78C49.449 7.78 49.013 7.98 48.701 8.38C48.389 8.772 48.233 9.312 48.233 10C48.233 10.688 48.389 11.232 48.701 11.632C49.013 12.024 49.449 12.22 50.009 12.22ZM56.1824 13.12C55.4944 13.12 54.9704 12.896 54.6104 12.448C54.2584 11.992 54.0824 11.324 54.0824 10.444V7H55.2704V10.456C55.2704 11.032 55.3704 11.46 55.5704 11.74C55.7704 12.02 56.0744 12.16 56.4824 12.16C56.9624 12.16 57.3584 11.98 57.6704 11.62C57.9904 11.26 58.1504 10.804 58.1504 10.252V7H59.3384V11.644C59.3384 12.076 59.3744 12.528 59.4464 13H58.3304C58.2664 12.656 58.2304 12.3 58.2224 11.932H58.1864C58.0264 12.3 57.7624 12.592 57.3944 12.808C57.0344 13.016 56.6304 13.12 56.1824 13.12ZM60.7267 8.536C60.7267 7.792 60.7107 7.28 60.6787 7H61.7827C61.8227 7.296 61.8427 7.648 61.8427 8.056H61.8787C62.0387 7.696 62.2987 7.412 62.6587 7.204C63.0267 6.988 63.4347 6.88 63.8827 6.88C65.2907 6.88 65.9947 7.792 65.9947 9.616V13H64.8067V9.604C64.8067 9.004 64.7067 8.56 64.5067 8.272C64.3067 7.984 63.9987 7.84 63.5827 7.84C63.0947 7.84 62.6947 8.016 62.3827 8.368C62.0707 8.72 61.9147 9.168 61.9147 9.712V13H60.7267V8.536ZM69.9512 13.12C69.0472 13.12 68.3432 12.844 67.8392 12.292C67.3352 11.74 67.0832 10.976 67.0832 10C67.0832 9.016 67.3352 8.252 67.8392 7.708C68.3432 7.156 69.0472 6.88 69.9512 6.88C70.4712 6.88 70.9272 6.98 71.3192 7.18C71.7192 7.38 72.0312 7.668 72.2552 8.044L71.5472 8.68C71.3792 8.408 71.1592 8.196 70.8872 8.044C70.6152 7.892 70.3192 7.816 69.9992 7.816C69.4552 7.816 69.0312 8.008 68.7272 8.392C68.4232 8.776 68.2712 9.312 68.2712 10C68.2712 10.68 68.4232 11.216 68.7272 11.608C69.0312 11.992 69.4552 12.184 69.9992 12.184C70.3192 12.184 70.6152 12.108 70.8872 11.956C71.1592 11.804 71.3792 11.592 71.5472 11.32L72.2552 11.956C72.0312 12.332 71.7192 12.62 71.3192 12.82C70.9272 13.02 70.4712 13.12 69.9512 13.12ZM78.3454 10.456H74.0734C74.1374 11 74.3094 11.412 74.5894 11.692C74.8774 11.972 75.2694 12.112 75.7654 12.112C76.4694 12.112 77.0374 11.836 77.4694 11.284L78.1294 11.92C77.8974 12.296 77.5654 12.592 77.1334 12.808C76.7014 13.016 76.2254 13.12 75.7054 13.12C74.8094 13.12 74.1094 12.848 73.6054 12.304C73.1094 11.752 72.8614 10.988 72.8614 10.012C72.8614 9.036 73.1134 8.272 73.6174 7.72C74.1214 7.16 74.8134 6.88 75.6934 6.88C76.5254 6.88 77.1734 7.156 77.6374 7.708C78.1094 8.252 78.3454 9.016 78.3454 10V10.456ZM77.2174 9.52C77.2174 9 77.0774 8.592 76.7974 8.296C76.5174 8 76.1334 7.852 75.6454 7.852C75.1894 7.852 74.8254 8.004 74.5534 8.308C74.2814 8.612 74.1174 9.044 74.0614 9.604H77.2174V9.52ZM79.4418 8.536C79.4418 7.928 79.4218 7.416 79.3818 7H80.4378C80.4698 7.296 80.4858 7.648 80.4858 8.056H80.5218C80.6738 7.696 80.9178 7.412 81.2538 7.204C81.5978 6.988 81.9858 6.88 82.4178 6.88C82.8418 6.88 83.2058 6.984 83.5098 7.192C83.8138 7.392 84.0178 7.676 84.1218 8.044C84.2898 7.684 84.5418 7.4 84.8778 7.192C85.2218 6.984 85.6058 6.88 86.0298 6.88C86.6938 6.88 87.2098 7.096 87.5778 7.528C87.9538 7.952 88.1418 8.54 88.1418 9.292V13H86.9538V9.4C86.9538 8.904 86.8458 8.52 86.6298 8.248C86.4218 7.976 86.1218 7.84 85.7298 7.84C85.3298 7.84 85.0018 7.988 84.7458 8.284C84.4978 8.572 84.3738 8.948 84.3738 9.412V13H83.1978V9.448C83.1978 8.376 82.8058 7.84 82.0218 7.84C81.7658 7.84 81.5298 7.912 81.3138 8.056C81.1058 8.2 80.9378 8.396 80.8098 8.644C80.6818 8.892 80.6178 9.16 80.6178 9.448V13H79.4418V8.536ZM94.7517 10.456H90.4797C90.5437 11 90.7157 11.412 90.9957 11.692C91.2837 11.972 91.6757 12.112 92.1717 12.112C92.8757 12.112 93.4437 11.836 93.8757 11.284L94.5357 11.92C94.3037 12.296 93.9717 12.592 93.5397 12.808C93.1077 13.016 92.6317 13.12 92.1117 13.12C91.2157 13.12 90.5157 12.848 90.0117 12.304C89.5157 11.752 89.2677 10.988 89.2677 10.012C89.2677 9.036 89.5197 8.272 90.0237 7.72C90.5277 7.16 91.2197 6.88 92.0997 6.88C92.9317 6.88 93.5797 7.156 94.0437 7.708C94.5157 8.252 94.7517 9.016 94.7517 10V10.456ZM93.6237 9.52C93.6237 9 93.4837 8.592 93.2037 8.296C92.9237 8 92.5397 7.852 92.0517 7.852C91.5957 7.852 91.2317 8.004 90.9597 8.308C90.6877 8.612 90.5237 9.044 90.4677 9.604H93.6237V9.52ZM95.8361 8.536C95.8361 7.792 95.8201 7.28 95.7881 7H96.8921C96.9321 7.296 96.9521 7.648 96.9521 8.056H96.9881C97.1481 7.696 97.4081 7.412 97.7681 7.204C98.1361 6.988 98.5441 6.88 98.9921 6.88C100.4 6.88 101.104 7.792 101.104 9.616V13H99.9161V9.604C99.9161 9.004 99.8161 8.56 99.6161 8.272C99.4161 7.984 99.1081 7.84 98.6921 7.84C98.2041 7.84 97.8041 8.016 97.4921 8.368C97.1801 8.72 97.0241 9.168 97.0241 9.712V13H95.8361V8.536ZM104.809 13.12C104.249 13.12 103.809 12.952 103.489 12.616C103.177 12.272 103.021 11.8 103.021 11.2V7.912H101.941V7H103.021V5.416L104.161 5.08H104.209V7H105.925V7.912H104.209V11.056C104.209 11.448 104.285 11.736 104.437 11.92C104.597 12.104 104.837 12.196 105.157 12.196C105.477 12.196 105.761 12.148 106.009 12.052L106.081 12.904C105.785 13.048 105.361 13.12 104.809 13.12ZM108.944 13.12C108.472 13.12 108.048 13.024 107.672 12.832C107.296 12.64 107.032 12.384 106.88 12.064L107.636 11.548C107.772 11.756 107.956 11.92 108.188 12.04C108.42 12.16 108.672 12.22 108.944 12.22C109.256 12.22 109.512 12.132 109.712 11.956C109.92 11.78 110.024 11.556 110.024 11.284C110.024 11.068 109.944 10.892 109.784 10.756C109.624 10.612 109.328 10.46 108.896 10.3C108.2 10.036 107.708 9.768 107.42 9.496C107.14 9.216 107 8.872 107 8.464C107 7.984 107.188 7.6 107.564 7.312C107.948 7.024 108.456 6.88 109.088 6.88C109.496 6.88 109.868 6.964 110.204 7.132C110.54 7.3 110.804 7.536 110.996 7.84L110.288 8.368C110.152 8.176 109.98 8.032 109.772 7.936C109.572 7.832 109.348 7.78 109.1 7.78C108.828 7.78 108.604 7.84 108.428 7.96C108.26 8.08 108.176 8.236 108.176 8.428C108.176 8.628 108.264 8.796 108.44 8.932C108.616 9.06 108.96 9.224 109.472 9.424C110.112 9.672 110.56 9.932 110.816 10.204C111.08 10.468 111.212 10.812 111.212 11.236C111.212 11.804 111.004 12.26 110.588 12.604C110.172 12.948 109.624 13.12 108.944 13.12Z" fill="white"/>
<path d="M12.3867 6.15264V4.03474C12.3867 3.36635 11.8954 2.87507 11.3881 3.0281L5.03066 4.97291H2.88457C2.26674 4.96348 1.66237 5.15464 1.16236 5.51755C0.66221 5.88047 0.29307 6.3957 0.110433 6.98606C-0.110795 7.75289 0.00352576 8.57751 0.424951 9.25536C0.846377 9.93307 1.53541 10.4005 2.32097 10.5413V13.2269C2.32097 13.3872 2.3846 13.5408 2.49784 13.654C2.61108 13.7673 2.76464 13.8309 2.92493 13.8309H3.73016C3.89032 13.8309 4.044 13.7673 4.15725 13.654C4.27049 13.5408 4.33412 13.3872 4.33412 13.2269V10.6098H4.7368L11.3483 12.5546C11.8797 12.7117 12.3871 12.2164 12.3871 11.548L12.387 9.06368C12.612 9.00976 12.8129 8.88304 12.9585 8.70321C13.1041 8.52337 13.1863 8.30052 13.1924 8.06919V7.1472C13.1863 6.91586 13.1041 6.69302 12.9585 6.51318C12.8129 6.33334 12.612 6.20662 12.387 6.15271L12.3867 6.15264Z" fill="white"/>
<path d="M14.3114 10.0421C14.1737 10.0423 14.0455 9.9725 13.9714 9.85669C13.8971 9.74089 13.8871 9.59516 13.945 9.47033C14.5198 8.21551 14.4119 6.75372 13.659 5.59706C13.5378 5.4102 13.5911 5.16055 13.7778 5.03934C13.9646 4.91815 14.2143 4.97139 14.3355 5.15825C15.2381 6.54614 15.3672 8.29952 14.6777 9.80459C14.6128 9.94884 14.4695 10.0417 14.3114 10.0421L14.3114 10.0421Z" fill="white"/>
<path d="M14.8026 11.415C14.6471 11.4155 14.5052 11.3264 14.438 11.1862C14.3709 11.0459 14.3906 10.8795 14.4886 10.7587C15.2697 9.79536 15.6675 8.57746 15.6058 7.33879C15.5442 6.10013 15.0273 4.92783 14.1544 4.04667C14.0277 3.88597 14.0417 3.65585 14.1869 3.51173C14.3321 3.36748 14.5623 3.35521 14.7221 3.48302C15.736 4.50302 16.3378 5.86123 16.4121 7.29762C16.4865 8.73391 16.028 10.147 15.1248 11.2661C15.0462 11.3631 14.9273 11.4181 14.8026 11.4151L14.8026 11.415Z" fill="white"/>
</svg>
