<svg width="11" height="15" viewBox="0 0 11 15" fill="none" xmlns="http://www.w3.org/2000/svg">
<path d="M5.71106e-05 13.1663V13.4996C0.0018428 13.8085 0.125278 14.1042 0.34368 14.3226C0.562091 14.541 0.857844 14.6646 1.16667 14.6662H9.83339C10.1422 14.6646 10.438 14.541 10.6564 14.3226C10.8748 14.1042 10.9982 13.8086 11 13.4996V13.1663C11 11.7076 10.4206 10.3086 9.38908 9.27718C8.35761 8.24571 6.95878 7.66626 5.5 7.66626C4.04122 7.66626 2.64233 8.24571 1.61092 9.27718C0.579448 10.3086 0 11.7075 0 13.1663H5.71106e-05Z" fill="white"/>
<path d="M8.99989 3.49994C8.99989 5.43294 7.43294 6.99989 5.49994 6.99989C3.56695 6.99989 2 5.43294 2 3.49994C2 1.56695 3.56695 0 5.49994 0C7.43294 0 8.99989 1.56695 8.99989 3.49994Z" fill="white"/>
</svg>
