<svg width="16" height="16" viewBox="0 0 16 16" fill="none" xmlns="http://www.w3.org/2000/svg">
<path d="M7.42845 0.000577118C3.33252 0.000577118 0 3.33301 0 7.42883C0 11.5247 3.33252 14.8571 7.42845 14.8571C9.27094 14.8571 10.9578 14.1811 12.2575 13.0662L15.0244 15.833C15.1279 15.9365 15.271 16 15.4285 16C15.744 16 16 15.744 16 15.4285C16 15.2705 15.9361 15.1275 15.8325 15.024L13.065 12.2572C14.1805 10.9577 14.857 9.27132 14.857 7.42825C14.857 3.33243 11.5244 0 7.4285 0L7.42845 0.000577118ZM7.42845 1.14304C10.9064 1.14304 13.7138 3.95041 13.7138 7.4282C13.7138 10.9061 10.9063 13.7134 7.42845 13.7134C3.95051 13.7134 1.14312 10.906 1.14312 7.4282C1.14312 3.95035 3.95057 1.14304 7.42845 1.14304Z" fill="#B4B3B3"/>
</svg>
