<svg width="17" height="19" viewBox="0 0 17 19" fill="none" xmlns="http://www.w3.org/2000/svg">
<path d="M14.208 5.1522L17 3.21982L15.0585 0.414551L10.2647 3.73143L11.2476 5.1522H9.26947L8.64357 6.02932C8.46916 5.9491 8.24519 5.90885 7.96373 5.90885C7.82833 5.90885 7.67938 5.92103 7.5255 5.93774V1.87439C7.5255 1.44261 7.1723 1.08941 6.74052 1.08941H0.784983C0.353204 1.08941 0 1.44261 0 1.87439V13.354C0 13.7858 0.353204 14.139 0.784983 14.139H6.74052C6.84374 14.139 6.9419 14.1181 7.03198 14.081C7.20681 14.2258 7.34165 14.3277 7.41543 14.3653C7.58711 14.4532 8.46698 14.8895 9.15821 15.2322L8.1565 16.2186L9.98827 18.0781L14.3828 13.1197L12.8666 11.5802L12.1057 12.3295C11.931 11.9652 11.7116 11.5102 11.4697 11.0145H16.8263V6.31786L15.9942 5.15185L14.208 5.1522ZM13.5602 3.37974L14.6167 1.47514L15.0459 1.71322L13.8706 3.83149L11.4719 4.16909L11.4035 3.6831L13.5602 3.37974ZM0.549362 1.87436C0.549362 1.74677 0.65724 1.63889 0.784836 1.63889H6.74037C6.86796 1.63889 6.97584 1.74677 6.97584 1.87436V2.24453H0.549278L0.549362 1.87436ZM0.549362 2.79421H6.97593V9.90244L5.66153 9.0038L5.12363 8.65949C5.65014 8.25287 5.99034 7.61698 5.99034 6.89974C5.99034 5.66942 4.99258 4.67219 3.7624 4.67219C2.53208 4.67219 1.53527 5.66938 1.53527 6.89974C1.53527 7.95035 2.26277 8.82828 3.24066 9.06334C3.21834 9.09866 3.19685 9.13494 3.17741 9.17299C2.88621 9.74331 3.06665 10.3859 3.68573 10.9819C3.8971 11.1859 4.24375 11.5187 4.64307 11.898L0.549232 11.8982L0.549362 2.79421ZM5.08655 6.0499L3.73121 8.12012L2.60627 7.19534L2.98015 6.74053L3.59813 7.24843L4.59396 5.72746L5.08655 6.0499ZM0.784877 13.5899C0.657285 13.5899 0.549404 13.482 0.549404 13.3544V12.4479H5.22502C5.64955 12.8465 6.08862 13.2527 6.46562 13.5899L0.784877 13.5899ZM11.6919 12.7377L11.8838 12.5486L9.57262 14.8244C8.86523 14.4741 7.84711 13.969 7.66529 13.8762C7.40449 13.7431 5.65776 12.1205 4.06701 10.5864C3.76295 10.2936 3.44686 9.85413 3.66685 9.42319C3.73324 9.29341 3.83195 9.19223 3.94599 9.11803C3.98679 9.09147 4.02977 9.06902 4.07413 9.05027C4.07468 9.05013 4.07536 9.04972 4.07605 9.04931C4.1204 9.03083 4.16613 9.01659 4.21309 9.00632C4.21391 9.00632 4.21446 9.00618 4.21528 9.00591C4.31001 8.98551 4.40886 8.98195 4.50729 8.99701C4.58614 9.0092 4.66473 9.02946 4.74002 9.06642L5.35843 9.46207L7.42921 10.8779L7.7393 10.4242L7.52559 10.278V6.48907C7.68412 6.46963 7.83198 6.45827 7.96382 6.45827C8.32456 6.45827 8.44736 6.53712 8.48336 6.57093C8.82958 6.89635 10.5384 10.329 11.6919 12.7378L11.6919 12.7377ZM10.3138 5.97048L10.4307 5.5558H11.5266L11.8136 5.97048H10.3138ZM13.0263 5.97048L13.6255 5.5558H14.8409L14.9578 5.97048H13.0263Z" fill="white"/>
</svg>
